<?xml version="1.0" standalone="no"?>
<!DOCTYPE svg PUBLIC "-//W3C//DTD SVG 20010904//EN"
 "http://www.w3.org/TR/2001/REC-SVG-20010904/DTD/svg10.dtd">
<svg version="1.0" xmlns="http://www.w3.org/2000/svg"
 width="926.000000pt" height="1280.000000pt" viewBox="0 0 926.000000 1280.000000"
 preserveAspectRatio="xMidYMid meet">
<metadata>
Created by potrace 1.15, written by Peter Selinger 2001-2017
</metadata>
<g transform="translate(0.000000,1280.000000) scale(0.100000,-0.100000)"
fill="#000000" stroke="none">
<path d="M4045 12794 c-246 -29 -493 -100 -675 -195 -226 -118 -467 -329 -715
-624 -81 -97 -136 -185 -176 -285 -20 -49 -71 -138 -121 -210 -104 -154 -131
-219 -129 -314 l1 -68 -77 -78 c-92 -94 -109 -123 -94 -157 30 -66 7 -100
-129 -187 -64 -41 -92 -75 -105 -128 -11 -42 9 -35 78 27 65 59 93 70 82 33
-33 -110 -91 -186 -225 -297 -124 -103 -139 -127 -204 -325 -48 -144 -69 -186
-121 -246 -17 -19 -60 -82 -95 -140 -35 -58 -160 -255 -277 -437 -438 -684
-479 -761 -703 -1333 -40 -102 -108 -257 -151 -345 -43 -88 -90 -200 -104
-250 -60 -206 -96 -508 -98 -825 -2 -242 4 -279 62 -405 24 -51 55 -150 86
-275 64 -263 144 -506 332 -1005 133 -352 173 -446 245 -580 48 -88 94 -180
104 -205 9 -25 25 -54 35 -64 17 -19 18 -19 54 12 41 36 73 47 116 38 29 -6
30 -5 14 16 -21 30 -19 55 5 63 28 9 95 -12 127 -39 28 -23 44 -30 71 -27 26
2 9 41 -59 131 -66 87 -70 95 -53 107 31 22 78 16 106 -15 37 -39 42 -52 83
-202 20 -74 45 -150 56 -169 18 -30 18 -36 6 -49 -13 -12 -6 -22 54 -74 55
-47 73 -57 83 -48 45 36 19 135 -70 267 -56 84 -59 92 -37 87 22 -6 24 -5 15
12 -6 11 -20 28 -31 38 -14 13 -21 31 -21 56 0 82 -72 137 -272 205 -109 38
-158 69 -158 103 0 29 21 42 65 42 33 0 47 -6 71 -31 72 -78 525 -262 921
-375 83 -23 175 -55 204 -69 56 -29 155 -116 164 -145 3 -10 19 -23 36 -30 75
-32 121 -102 139 -215 6 -37 19 -84 30 -105 10 -20 44 -110 75 -200 70 -204
92 -246 165 -325 87 -94 95 -112 95 -230 0 -99 -29 -293 -61 -402 -9 -34 -30
-69 -60 -102 -76 -85 -197 -131 -434 -166 -63 -9 -163 -25 -221 -35 -173 -31
-245 -34 -323 -16 -95 23 -147 53 -140 81 8 31 -20 55 -63 55 -31 0 -43 -8
-87 -56 -28 -31 -80 -79 -116 -107 -144 -113 -177 -156 -191 -250 -5 -34 -12
-77 -15 -95 -13 -70 46 -84 107 -24 50 51 58 85 31 135 -18 32 -19 39 -6 44
17 6 92 -20 144 -50 136 -79 184 -146 184 -257 0 -75 -21 -135 -97 -275 -82
-151 -128 -257 -125 -290 4 -44 37 -57 124 -51 77 6 157 34 409 141 163 70
282 105 354 105 106 -1 246 -57 326 -131 69 -64 69 -115 -1 -141 -25 -9 -42
-24 -55 -49 -46 -91 -115 -138 -203 -139 -166 -1 -366 -120 -469 -281 -46 -72
-86 -168 -94 -225 -6 -45 -5 -46 18 -39 40 12 90 48 188 138 52 48 110 94 128
102 18 9 57 41 88 72 55 56 55 56 76 37 12 -10 32 -42 44 -71 33 -73 56 -93
109 -93 37 0 54 8 103 44 32 24 76 68 98 98 44 59 84 97 103 98 16 0 2 -28
-40 -82 -25 -32 -27 -39 -14 -44 33 -12 66 8 170 105 143 133 186 161 248 161
55 0 123 -30 203 -90 66 -48 85 -58 245 -119 156 -59 275 -91 336 -91 43 0 43
0 32 -26 -16 -34 0 -44 76 -44 36 0 113 -15 205 -40 690 -186 1000 -233 1536
-234 370 0 485 12 592 64 69 34 106 74 149 158 55 109 33 219 -71 346 -104
127 -414 352 -642 465 -119 60 -339 151 -364 151 -27 0 -179 81 -179 96 0 22
28 29 49 10 39 -36 119 -29 191 15 47 29 23 36 -36 10 -25 -12 -50 -18 -55
-15 -5 3 -9 22 -9 43 0 29 -7 46 -30 69 -39 41 -40 84 -2 121 15 15 70 51 122
80 105 59 130 78 130 98 0 22 -18 15 -89 -37 -125 -91 -133 -93 -401 -99 -129
-3 -237 -5 -239 -4 -2 2 2 4 10 6 69 18 165 54 181 67 10 8 24 26 31 40 10 20
28 29 93 46 104 28 123 38 141 82 16 40 41 72 55 72 15 0 9 -18 -17 -48 l-25
-30 27 -7 c40 -10 56 17 48 81 -3 27 -1 62 4 77 9 23 16 27 43 26 18 -2 43 3
55 9 31 17 82 15 90 -3 9 -24 -23 -97 -62 -142 -19 -23 -59 -54 -88 -71 -29
-16 -59 -37 -66 -46 -12 -14 -10 -16 10 -16 13 0 60 7 104 15 44 8 81 14 83
15 1 0 2 7 2 15 0 42 94 84 144 65 14 -5 34 -25 43 -44 32 -69 53 -60 121 48
56 89 77 109 130 119 39 8 73 30 157 103 98 84 150 100 220 70 l30 -13 -53
-23 c-57 -24 -102 -70 -102 -101 0 -11 14 -49 31 -85 47 -97 29 -138 -111
-258 -91 -78 -128 -122 -113 -137 22 -22 80 19 157 109 117 139 103 133 319
136 154 2 194 6 262 26 44 12 87 22 95 22 344 -21 859 -6 925 25 39 19 51 43
35 73 -13 24 -1 26 38 6 52 -27 91 -87 74 -112 -11 -17 -43 -31 -102 -43 -116
-25 -206 -32 -540 -41 -486 -14 -518 -16 -579 -37 -62 -20 -74 -38 -38 -54 13
-6 32 -28 41 -49 41 -94 141 -127 306 -102 44 7 45 8 43 43 -2 34 0 35 32 36
20 1 66 18 109 42 85 46 88 47 79 25 -6 -15 6 -16 123 -10 71 3 174 11 229 18
88 10 118 9 251 -10 83 -12 173 -22 200 -22 l49 -1 -23 -19 c-13 -11 -40 -24
-60 -30 -55 -15 -179 -11 -247 7 -81 23 -178 21 -315 -6 -63 -13 -116 -24
-118 -26 -13 -12 178 -28 412 -35 330 -11 316 -14 485 112 148 111 197 137
296 155 46 8 92 21 102 28 15 11 15 15 3 30 -12 15 -27 17 -95 12 -65 -4 -104
-15 -210 -57 -71 -29 -143 -61 -158 -72 -16 -11 -29 -19 -30 -17 -13 23 -35
105 -29 111 14 14 165 59 344 104 187 46 250 68 293 102 l25 20 -31 6 c-17 3
-60 1 -97 -4 -65 -9 -104 -20 -282 -75 -105 -32 -260 -46 -260 -23 0 30 74
161 115 204 43 46 84 58 86 27 2 -33 -3 -48 -24 -70 -11 -13 -18 -25 -15 -28
8 -8 122 81 240 188 31 28 45 73 31 96 -6 9 -27 17 -47 19 -31 3 -41 -2 -69
-33 -40 -46 -57 -55 -194 -99 -102 -34 -118 -42 -181 -99 -39 -35 -87 -69
-109 -76 -21 -7 -106 -15 -193 -18 -130 -4 -174 -2 -270 16 -147 27 -163 27
-155 1 5 -17 -1 -23 -32 -36 -35 -15 -46 -15 -143 2 -67 12 -155 19 -245 19
-126 0 -145 2 -192 24 -62 27 -115 83 -133 136 -21 63 -8 108 63 214 121 182
134 226 92 305 -47 88 -22 95 147 40 l111 -36 61 17 c102 29 166 70 166 106 0
12 -28 37 -73 67 -85 58 -165 141 -267 278 -40 54 -113 140 -161 190 -89 93
-106 125 -97 185 4 30 71 70 88 53 6 -6 15 -47 19 -92 l8 -81 128 -148 c71
-81 192 -212 270 -290 155 -155 116 -129 447 -287 53 -25 124 -68 157 -96 33
-28 73 -55 88 -61 17 -6 88 -7 197 -3 230 9 347 -9 543 -82 73 -28 97 -33 113
-24 11 6 66 20 122 31 92 19 178 50 178 65 0 2 -10 24 -21 46 -32 63 -56 136
-104 318 -48 182 -55 203 -86 242 -30 37 -19 65 41 111 28 21 50 44 50 51 0
27 -118 245 -192 356 -42 63 -124 173 -182 244 -58 71 -106 133 -106 138 0 4
-9 17 -20 28 -29 29 -79 25 -158 -10 l-67 -31 31 33 c85 91 96 142 45 200 -37
43 -52 73 -46 91 3 7 33 27 65 42 64 30 104 66 114 102 17 56 -47 216 -163
407 -99 163 -127 221 -139 291 -6 34 -40 126 -77 210 -37 82 -72 173 -78 202
-10 50 -10 55 11 76 23 22 23 22 38 3 17 -24 18 -52 3 -95 -22 -63 21 -122 74
-102 33 13 42 43 23 80 -9 17 -16 47 -16 67 0 48 -45 92 -137 130 -124 53
-134 69 -40 67 67 -2 154 -31 284 -94 138 -67 143 -91 37 -170 -92 -70 -92
-85 -1 -137 67 -38 152 -105 173 -138 14 -21 15 -29 4 -48 -9 -18 -9 -29 -1
-45 39 -73 153 -37 182 58 10 32 6 48 -29 143 -77 205 -225 464 -282 493 -57
29 -68 102 -24 154 37 44 84 43 150 -4 54 -38 75 -43 94 -20 17 21 -10 61 -48
70 -25 5 -29 12 -40 64 -17 83 -70 183 -144 272 l-63 77 -5 -32 c-3 -18 -12
-32 -22 -34 -17 -3 -92 31 -102 46 -8 13 13 35 57 65 21 14 34 28 29 31 -6 3
-38 10 -71 14 -34 5 -67 14 -74 21 -6 6 -14 45 -18 87 -4 51 -12 83 -26 102
-12 17 -76 55 -169 102 -171 86 -209 110 -229 150 -14 27 -13 28 15 40 61 25
78 76 46 138 -28 54 -122 128 -272 212 -168 95 -239 127 -306 136 -38 5 -48
11 -52 30 -10 38 -71 99 -150 151 -39 25 -73 48 -76 50 -2 2 2 8 10 13 13 8
13 13 0 37 -27 48 -95 89 -247 148 -238 93 -339 148 -345 187 -3 22 -35 39
-100 52 -17 4 -41 26 -71 68 -81 113 -169 185 -427 350 -156 100 -191 116
-355 165 -66 19 -145 46 -175 60 -30 14 -112 47 -182 73 -217 83 -266 127
-331 308 -119 325 -166 642 -154 1050 l6 213 45 57 c24 31 91 103 148 159 115
112 376 343 389 343 5 0 138 -45 296 -101 331 -116 432 -149 453 -149 34 0 74
-39 118 -114 60 -101 72 -109 110 -72 89 84 134 254 136 511 2 223 -34 296
-248 510 -168 167 -279 251 -436 330 -119 60 -166 102 -288 260 -72 92 -85
105 -194 172 -292 182 -467 272 -633 328 -64 21 -92 25 -183 24 -59 -1 -120
-4 -137 -5z m293 -63 c80 -21 227 -80 219 -88 -2 -2 -45 3 -95 11 -92 15 -137
11 -168 -15 -32 -26 -17 -33 176 -85 74 -19 162 -46 195 -59 33 -13 87 -31
120 -40 118 -33 215 -97 366 -239 59 -56 121 -111 138 -124 61 -46 52 -114
-31 -237 l-50 -74 -32 33 c-17 18 -73 54 -123 80 -62 32 -103 61 -123 86 -22
28 -64 54 -172 108 -191 94 -284 123 -418 129 -101 5 -197 -6 -229 -27 -13 -7
-13 -11 -1 -26 13 -15 29 -16 132 -11 92 4 118 2 118 -8 0 -21 -23 -34 -140
-80 -142 -56 -164 -69 -150 -95 20 -37 181 -199 229 -229 99 -64 258 -93 307
-56 18 14 16 17 -43 73 -35 32 -63 63 -63 69 0 18 50 73 66 73 10 0 14 -13 14
-42 0 -41 2 -44 43 -60 82 -34 130 -18 143 50 9 46 21 31 29 -36 3 -32 11 -65
16 -73 17 -25 49 26 49 77 0 47 9 54 36 27 25 -26 44 -77 44 -122 0 -49 8 -55
44 -32 22 15 35 17 68 9 87 -19 104 -49 68 -124 -32 -65 -81 -97 -184 -119
-113 -23 -156 -17 -296 43 -170 73 -157 71 -413 48 -183 -17 -274 -38 -337
-78 l-35 -22 35 -8 c19 -4 155 -12 301 -18 146 -5 273 -12 282 -16 9 -3 22
-24 27 -46 6 -21 20 -48 32 -60 18 -18 28 -19 79 -14 52 6 67 3 129 -24 57
-25 81 -30 128 -28 l57 3 -47 30 c-27 17 -48 33 -48 36 0 12 27 17 41 8 30
-19 49 -9 73 38 l23 47 16 -29 c35 -68 84 -94 222 -119 112 -21 152 -33 189
-59 l29 -20 -27 -24 c-34 -29 -59 -29 -181 3 -105 27 -111 27 -405 -1 -156
-15 -382 -85 -514 -159 -169 -94 -403 -289 -471 -391 -40 -62 -41 -65 -17 -65
19 0 61 33 163 125 30 27 68 57 84 65 17 8 40 27 53 42 16 19 37 29 70 34 26
4 59 13 74 20 24 12 25 16 15 43 -14 38 14 87 64 113 42 21 67 16 75 -18 9
-35 34 -30 104 22 69 51 121 80 163 90 28 6 33 -1 18 -25 -22 -35 47 -78 110
-69 16 3 29 1 29 -3 0 -10 -159 -154 -318 -288 -136 -115 -244 -217 -299 -282
-17 -21 -42 -45 -57 -54 -28 -19 -56 -94 -56 -152 0 -52 -25 -101 -54 -109
-19 -5 -26 -13 -26 -31 0 -26 0 -26 64 -19 56 6 65 4 70 -11 16 -55 26 -167
26 -309 0 -180 9 -248 46 -331 35 -77 65 -200 58 -229 -9 -33 -40 -31 -99 8
-125 83 -214 197 -230 296 -9 53 7 141 51 293 37 125 41 164 21 172 -39 15
-50 -18 -118 -338 -34 -161 -74 -286 -113 -356 l-25 -43 -12 29 c-14 37 -16
132 -5 290 5 69 4 130 -1 143 -8 21 -13 17 -63 -60 -88 -135 -393 -428 -495
-474 -27 -13 -108 -37 -180 -55 -149 -36 -200 -59 -208 -91 -7 -28 -47 -70
-148 -160 -88 -77 -109 -114 -109 -190 0 -61 -11 -78 -54 -78 -22 0 -40 11
-73 45 -40 43 -48 62 -43 110 3 34 17 37 29 6 7 -16 21 -37 30 -45 16 -15 20
-6 59 126 52 171 91 263 148 345 l43 62 -32 3 c-43 4 -46 35 -13 129 14 40 23
76 20 81 -10 16 -42 -12 -94 -82 -28 -38 -65 -79 -81 -91 l-29 -21 -30 26
c-33 27 -87 46 -136 46 -77 0 -268 -83 -283 -123 -16 -42 -37 -50 -150 -57
-67 -3 -115 -11 -125 -19 -33 -28 -14 6 39 68 76 90 138 138 251 196 l98 50
116 0 c124 0 152 8 199 59 l25 26 -32 -6 c-50 -10 -38 9 36 59 105 69 372 285
372 300 0 8 9 22 20 32 16 15 30 17 80 12 32 -4 66 -4 74 -1 8 3 22 31 31 61
13 44 14 58 4 70 -27 31 -125 -16 -204 -98 -55 -57 -209 -176 -267 -205 -63
-32 -85 -31 -85 2 0 42 -16 48 -64 26 -49 -22 -127 -86 -117 -97 3 -3 25 -1
47 6 23 7 43 10 46 7 3 -3 -10 -38 -30 -79 -19 -40 -35 -83 -35 -95 0 -12 -6
-27 -14 -33 -11 -9 -18 -6 -35 15 -12 15 -24 38 -27 51 -5 19 -11 22 -33 17
-49 -11 -165 -70 -276 -141 -164 -104 -168 -106 -265 -107 -99 -1 -144 -22
-187 -87 -53 -80 -36 -197 33 -238 47 -28 45 -54 -8 -88 -71 -44 -98 -74 -98
-105 0 -23 -4 -28 -24 -28 -14 0 -39 -12 -56 -26 l-31 -27 6 29 c18 79 39 143
63 189 25 47 27 58 27 180 -1 116 -4 141 -31 231 l-31 100 36 41 c20 22 42 58
50 79 35 101 81 183 117 204 19 12 38 20 41 16 17 -17 -2 -80 -62 -201 -37
-74 -65 -142 -63 -151 2 -9 11 -22 21 -28 26 -17 52 5 53 45 0 19 13 58 28 88
55 108 59 127 61 286 1 172 14 228 70 297 19 24 50 63 68 87 17 25 70 90 116
145 101 121 157 205 173 260 7 23 25 53 40 67 36 35 45 61 59 172 12 101 27
140 69 177 38 34 222 430 314 676 53 142 178 326 335 495 93 101 295 273 384
328 178 110 414 169 738 187 129 6 156 15 124 38 -11 8 -39 20 -62 25 -24 6
-43 14 -43 18 0 14 239 -6 318 -26z m292 -682 c12 -23 19 -43 17 -45 -6 -6
-67 64 -67 76 0 25 32 6 50 -31z m857 -151 c13 -12 23 -16 23 -10 0 16 35 15
73 -2 18 -7 47 -19 65 -26 39 -15 66 -51 58 -78 -8 -23 -43 -42 -76 -41 -14 0
-41 1 -61 1 -62 2 -150 -68 -135 -108 8 -20 62 -10 92 17 27 25 34 24 60 -8
23 -30 26 -29 97 15 27 17 27 17 50 -12 l23 -28 34 21 c43 26 76 27 88 4 5
-10 13 -44 16 -76 6 -42 13 -60 28 -68 23 -12 22 -13 35 26 5 17 17 31 26 33
21 4 32 -52 23 -124 -5 -41 -3 -54 7 -54 15 0 59 -45 76 -77 51 -99 18 -500
-42 -511 -10 -2 -18 5 -21 20 -31 158 -44 188 -114 261 -67 68 -139 101 -225
102 -73 0 -87 9 -87 56 0 14 -6 33 -13 43 -12 17 -15 17 -60 -5 -37 -18 -52
-21 -65 -13 -44 28 -10 167 55 224 38 34 36 50 -6 50 -55 0 -181 -115 -181
-165 0 -27 -46 -73 -60 -59 -6 6 -18 34 -28 64 -9 29 -22 55 -29 57 -7 3 -21
-14 -32 -36 -38 -73 -82 -70 -97 8 -6 26 -2 37 19 59 14 15 43 65 65 112 22
49 52 97 69 111 18 15 33 39 37 60 8 46 63 128 105 156 43 29 78 29 108 1z
m-1098 -102 c9 -11 6 -18 -15 -35 -29 -23 -64 -28 -64 -9 0 16 40 58 56 58 6
0 17 -6 23 -14z m1315 -687 c14 -11 26 -27 26 -35 0 -31 -107 -47 -130 -19
-10 12 -7 20 18 45 36 35 50 37 86 9z m197 -98 c50 -50 61 -77 33 -88 -25 -9
-64 18 -90 63 -50 85 -17 100 57 25z m-1512 -720 c15 -51 14 -89 -4 -191 -23
-133 -20 -188 15 -256 35 -66 33 -83 -27 -191 -26 -47 -31 -63 -20 -63 38 0
114 -179 243 -570 105 -316 134 -426 134 -499 l0 -40 -35 6 c-19 3 -35 1 -35
-4 0 -5 25 -33 56 -63 54 -52 84 -101 84 -135 0 -23 -14 -18 -60 20 -48 40
-67 44 -72 14 -4 -29 -44 -57 -93 -64 l-40 -6 53 25 c49 24 52 27 52 63 0 95
-65 240 -136 301 -60 53 -298 179 -420 222 -85 29 -108 42 -123 66 -54 89
-119 76 -247 -48 l-71 -69 -84 3 c-47 2 -84 7 -84 13 0 5 17 21 38 34 44 29
47 45 9 65 -15 8 -35 23 -45 34 l-18 20 -54 -24 c-29 -14 -115 -40 -190 -59
-76 -19 -152 -44 -170 -55 -66 -41 -135 -14 -135 53 0 47 29 69 130 101 159
52 304 143 484 306 55 50 106 90 113 90 7 0 17 -9 23 -19 10 -21 8 -38 -31
-203 -36 -151 -5 -157 141 -28 94 83 136 110 168 110 21 0 262 -192 329 -261
23 -24 63 -73 90 -108 60 -81 79 -93 99 -66 22 28 12 115 -27 223 -82 231
-134 477 -148 702 -11 168 0 526 17 557 29 52 74 49 91 -6z m-2654 -89 c-36
-66 -104 -143 -105 -118 0 29 60 134 94 163 40 33 44 16 11 -45z m679 -1093
c5 -4 -5 -22 -23 -39 -26 -26 -34 -30 -46 -20 -33 28 -2 87 39 74 11 -3 25
-10 30 -15z m-490 -116 c-7 -39 -84 -226 -91 -220 -6 7 17 150 29 182 12 33
46 75 60 75 5 0 6 -17 2 -37z m369 -92 c14 -14 16 -23 8 -43 -11 -30 -54 -66
-88 -75 -62 -15 -70 73 -12 122 34 28 60 27 92 -4z m-273 -20 c0 -21 10 -38
35 -60 20 -17 41 -31 47 -31 20 0 1 -105 -31 -169 -17 -33 -36 -61 -41 -61
-18 0 -15 68 5 117 13 31 13 32 -13 35 -20 2 -33 14 -50 48 -35 68 -19 150 29
150 14 0 19 -7 19 -29z m1385 -65 c24 -36 2 -104 -67 -204 -17 -24 -32 -62
-35 -85 -5 -44 -31 -99 -48 -101 -5 -1 -11 14 -13 32 -5 49 -30 41 -103 -35
-138 -145 -178 -198 -176 -229 2 -29 1 -29 -55 -32 -50 -3 -58 -6 -58 -23 0
-12 12 -27 30 -37 38 -21 38 -32 2 -32 -31 0 -55 21 -66 57 -10 31 -46 74 -57
68 -5 -4 -9 -30 -9 -59 0 -65 -17 -157 -31 -171 -7 -7 -15 -4 -26 10 -21 28
-11 108 27 219 30 89 39 169 20 181 -18 11 -50 -15 -78 -64 l-28 -49 -18 112
c-19 118 -16 166 13 204 l17 23 44 -78 c25 -43 61 -95 80 -117 19 -21 40 -55
45 -74 12 -42 33 -57 69 -48 33 8 55 43 108 176 90 227 139 299 240 349 80 40
150 43 173 7z m-2277 -37 c3 -39 -51 -143 -71 -136 -17 5 -21 84 -6 119 13 31
47 60 64 55 5 -2 11 -19 13 -38z m533 -69 c-19 -61 -27 -73 -60 -95 -39 -24
-58 -62 -76 -152 -11 -55 -25 -37 -25 32 0 78 28 164 68 215 27 33 102 84 110
75 3 -2 -5 -36 -17 -75z m3616 4 c123 -41 174 -68 222 -118 29 -30 35 -45 39
-91 4 -45 1 -60 -14 -76 -18 -20 -65 -49 -80 -49 -3 0 -3 36 1 81 8 90 3 101
-65 143 -82 52 -177 76 -304 77 -75 1 -95 8 -96 32 0 17 68 36 127 37 46 0 91
-10 170 -36z m-2504 5 c30 -16 67 -50 67 -63 0 -6 -11 -24 -25 -41 l-25 -30
-30 33 c-17 19 -49 39 -71 45 -51 15 -53 27 -9 49 41 21 63 22 93 7z m752 -86
c4 -32 16 -75 26 -95 26 -50 24 -66 -4 -37 -13 13 -44 39 -70 56 -26 18 -47
40 -47 50 0 19 58 83 76 83 7 0 15 -24 19 -57z m-599 21 c10 -41 -3 -104 -27
-130 -47 -50 -63 -14 -35 80 23 75 50 98 62 50z m-1021 -66 c-4 -29 -8 -73 -9
-98 l-1 -45 45 -3 c68 -5 70 -19 6 -37 -62 -18 -121 -16 -174 6 -57 24 -67 8
-70 -110 -1 -55 -7 -101 -12 -101 -5 0 -21 18 -35 40 -29 46 -42 50 -51 16 -3
-13 -17 -35 -30 -47 -34 -32 -49 -10 -27 40 8 20 19 51 23 70 12 47 49 82 142
132 73 40 128 89 128 117 0 15 49 72 62 72 7 0 8 -18 3 -52z m3275 20 c47 -20
100 -66 100 -86 0 -45 -107 -183 -152 -198 -10 -3 -18 -11 -18 -19 0 -35 77
-24 169 26 30 16 56 27 59 25 2 -3 -2 -17 -10 -32 -24 -49 -55 -63 -178 -79
-63 -9 -128 -21 -143 -27 -43 -17 -77 -47 -77 -69 0 -22 -38 -27 -58 -7 -16
16 -15 78 2 119 32 76 86 119 151 119 46 0 44 14 -6 46 -49 31 -46 40 5 19 28
-12 45 -13 73 -6 40 11 83 47 83 70 0 18 -39 61 -55 61 -17 0 -58 47 -51 58 7
11 53 2 106 -20z m-3940 -3 c17 -20 5 -32 -46 -50 -64 -22 -82 -3 -39 40 27
28 66 32 85 10z m132 -12 c23 -21 23 -36 -2 -58 -28 -25 -50 -13 -50 28 0 50
18 61 52 30z m968 -98 c0 -8 -20 -47 -45 -87 -48 -78 -51 -90 -39 -182 6 -46
4 -57 -5 -51 -23 14 -51 89 -50 135 0 82 32 143 94 181 36 23 45 24 45 4z
m-167 -46 c17 -24 12 -51 -14 -75 -41 -37 -68 24 -33 74 19 27 29 28 47 1z
m-836 -11 c41 -15 41 -23 3 -43 -37 -19 -52 -45 -39 -68 7 -12 17 -15 33 -11
18 4 29 -2 50 -26 29 -35 34 -70 11 -70 -9 0 -34 9 -57 21 -24 12 -53 19 -69
17 -22 -4 -29 -1 -29 12 0 23 -35 53 -97 84 -29 15 -53 29 -53 31 0 15 51 23
79 12 29 -11 34 -9 63 21 35 35 54 38 105 20z m3113 -32 c0 -17 -51 -56 -74
-56 -22 0 -20 20 6 47 24 26 68 31 68 9z m-1200 -81 c36 -19 64 -67 48 -83
-14 -14 -59 8 -87 44 -39 50 -20 69 39 39z m-1232 -38 c2 -20 -5 -36 -28 -58
-53 -54 -69 1 -19 65 25 32 43 29 47 -7z m461 -13 c31 -53 28 -71 -16 -84 -58
-16 -65 -23 -61 -66 2 -30 -1 -39 -14 -42 -15 -3 -18 4 -18 41 0 79 43 187 74
187 8 0 23 -16 35 -36z m637 28 c16 -10 46 -72 35 -72 -9 0 -71 66 -71 75 0 8
24 6 36 -3z m1344 -5 c0 -2 -12 -32 -26 -68 -15 -35 -26 -76 -26 -91 0 -18 -5
-28 -13 -28 -23 0 -85 89 -85 121 0 30 3 32 60 29 25 -1 42 5 54 19 17 18 36
28 36 18z m-3527 -47 c-27 -11 -28 -25 -8 -73 20 -49 19 -54 -15 -72 -39 -20
-38 -34 5 -75 41 -40 43 -53 13 -75 -20 -13 -21 -17 -8 -25 24 -16 78 -11 118
9 38 19 144 124 177 174 10 15 20 26 22 23 9 -9 -44 -111 -90 -172 -37 -51
-57 -67 -113 -94 -132 -62 -172 -52 -195 52 -8 35 -14 108 -14 163 0 82 3 105
19 128 22 32 48 46 86 46 25 0 25 0 3 -9z m5100 -77 c113 -140 158 -244 158
-361 0 -85 -21 -130 -75 -156 -68 -32 -147 -13 -245 59 -72 52 -185 205 -163
219 5 3 28 8 50 12 30 5 42 11 42 23 0 30 -23 50 -125 104 -69 37 -107 64
-123 87 -38 57 -33 60 128 66 79 3 147 7 149 10 2 2 37 4 77 4 l73 0 54 -67z
m-4225 -24 c2 -38 -1 -50 -24 -72 -29 -29 -74 -37 -74 -13 0 42 62 140 83 133
7 -2 13 -24 15 -48z m2798 2 c41 -19 84 -63 84 -86 0 -25 -26 -36 -54 -24 -42
19 -52 1 -32 -57 9 -26 16 -62 16 -80 0 -28 -5 -34 -42 -49 -62 -25 -137 -30
-226 -15 -126 21 -154 43 -202 160 l-31 75 22 18 c29 23 42 12 85 -80 35 -74
83 -122 92 -94 9 26 42 51 70 51 15 0 52 -6 82 -13 31 -8 61 -12 68 -9 21 7
13 30 -18 52 -35 25 -38 45 -11 60 16 8 18 17 14 51 -4 29 -2 44 8 50 20 12
28 11 75 -10z m-2432 -20 c14 -26 14 -30 -2 -44 -26 -24 -103 -57 -134 -57
-25 0 -58 22 -58 40 0 4 17 19 38 31 111 70 134 74 156 30z m3133 -7 c15 -40
-60 -112 -146 -138 -25 -8 -76 -26 -113 -40 -38 -14 -68 -22 -68 -18 0 16 167
178 200 195 45 22 118 23 127 1z m-4597 -186 c-14 -73 -22 -150 -21 -220 0
-59 -4 -110 -8 -113 -5 -3 -20 12 -32 32 -30 48 -36 130 -15 210 21 81 90 243
94 221 2 -9 -7 -67 -18 -130z m4920 99 c14 -27 14 -29 -9 -48 -18 -15 -36 -19
-70 -17 -59 4 -65 27 -20 69 40 38 77 36 99 -4z m694 -45 c7 -15 16 -63 18
-107 5 -89 27 -143 103 -250 23 -33 52 -78 63 -101 11 -22 31 -45 45 -51 31
-14 83 -79 135 -168 22 -38 53 -83 70 -98 25 -24 30 -26 42 -12 21 26 3 76
-60 160 -67 91 -90 132 -90 167 0 13 -23 60 -50 103 -61 97 -70 123 -45 141
15 12 24 10 57 -8 53 -30 80 -69 148 -212 32 -68 71 -138 88 -157 42 -49 51
-69 58 -135 12 -103 31 -126 69 -84 39 43 -2 150 -120 310 -42 58 -82 114 -87
125 -17 30 81 -55 164 -144 73 -77 148 -203 148 -246 0 -20 -17 -48 -73 -118
-17 -21 -27 -45 -25 -58 4 -31 48 -60 100 -66 67 -8 78 13 78 144 0 197 49
211 140 42 17 -32 57 -127 89 -211 47 -124 59 -169 65 -237 4 -46 15 -108 26
-137 40 -116 90 -153 215 -163 99 -8 115 -19 146 -100 11 -31 28 -64 37 -74
14 -16 14 -19 0 -33 -24 -24 -49 -10 -104 56 -78 95 -152 121 -146 52 4 -58
-32 -33 -75 52 -32 64 -43 72 -66 44 -13 -15 -17 -35 -16 -64 2 -28 -3 -49
-13 -61 -42 -48 -54 -133 -24 -178 13 -20 21 -22 55 -18 36 5 42 3 50 -19 19
-52 -22 -161 -89 -234 -21 -23 -46 -56 -55 -74 -16 -31 -16 -34 3 -59 12 -17
36 -30 66 -38 52 -13 96 -38 96 -53 0 -6 -37 -10 -86 -10 -99 0 -120 -9 -140
-56 -19 -46 -4 -80 75 -169 40 -46 61 -78 61 -95 0 -64 79 -137 157 -147 138
-16 190 105 125 293 -37 104 -118 254 -138 254 -9 0 -29 9 -45 21 -25 17 -29
27 -29 64 0 25 7 62 15 82 8 21 22 87 30 147 8 60 22 120 30 133 18 27 51 30
83 7 25 -17 21 -34 -8 -34 -10 0 -25 -7 -34 -15 -12 -13 -13 -21 -4 -40 9 -20
19 -25 47 -25 73 0 116 -47 156 -170 10 -30 27 -73 38 -95 15 -29 21 -63 23
-125 3 -98 39 -225 79 -280 41 -55 34 -82 -39 -158 -81 -86 -95 -111 -70 -129
10 -7 23 -13 30 -13 19 0 44 -41 44 -72 0 -20 14 -40 53 -75 97 -89 407 -408
407 -420 0 -26 -44 -43 -110 -43 l-65 1 -43 72 c-24 41 -82 116 -128 168 -46
52 -119 134 -161 183 -43 49 -95 107 -116 130 l-38 41 7 -62 6 -61 -50 -26
c-28 -14 -56 -35 -62 -45 -16 -31 -12 -88 9 -129 26 -49 109 -130 169 -162 41
-23 47 -31 50 -63 4 -51 -13 -54 -95 -19 -37 16 -78 33 -90 37 -15 4 -23 14
-23 29 0 37 -79 134 -122 149 -20 7 -34 -8 -43 -46 -6 -23 -2 -34 21 -59 40
-42 168 -141 304 -233 265 -181 340 -242 340 -276 0 -25 -26 -59 -46 -59 -6 0
-36 25 -65 55 -29 30 -120 103 -203 161 -189 134 -241 173 -295 223 -27 25
-70 50 -115 67 -92 34 -116 50 -116 75 0 11 -47 77 -106 147 -165 197 -290
380 -272 397 27 27 122 -61 195 -179 30 -50 67 -104 82 -120 28 -31 78 -56
111 -56 12 0 36 -16 55 -35 28 -30 38 -35 62 -29 84 19 131 164 52 164 -27 0
-31 -15 -15 -55 8 -19 12 -35 8 -35 -13 0 -54 31 -149 112 -111 95 -167 157
-199 220 -28 55 -28 58 -11 58 6 0 18 4 26 9 11 7 7 18 -22 52 -44 50 -47 76
-12 85 61 15 108 -21 197 -155 64 -96 94 -128 140 -152 48 -25 78 -25 78 -1 0
26 -48 89 -98 132 -23 19 -60 50 -83 69 -52 45 -75 91 -110 224 -28 106 -62
197 -74 197 -3 0 -1 -9 5 -21 18 -33 5 -33 -24 1 -15 18 -26 44 -26 61 0 24 4
29 24 29 38 0 40 17 12 72 -32 62 -36 128 -7 128 23 0 68 -51 77 -86 4 -14 4
-38 1 -54 -8 -36 10 -90 30 -90 20 0 54 83 60 149 5 49 9 59 37 77 79 51 -9
169 -97 130 -14 -7 -10 8 19 70 76 163 86 205 97 389 11 185 4 227 -39 233
-20 3 -21 -4 -32 -205 -7 -114 -15 -220 -18 -235 -8 -37 -41 -38 -50 -2 -11
42 3 145 25 194 39 85 15 108 -45 45 -18 -19 -35 -35 -38 -35 -15 0 -1 58 54
222 33 98 60 189 60 203 0 15 -10 31 -26 42 -22 14 -32 15 -67 4 -23 -6 -57
-16 -76 -21 -73 -19 -130 -93 -134 -171 -3 -57 20 -72 63 -40 37 27 53 19 71
-36 24 -74 -15 -203 -76 -248 -47 -35 -81 -36 -167 -7 -127 45 -161 89 -210
276 -51 196 -101 273 -128 200 -16 -41 -12 -67 20 -136 44 -99 69 -242 79
-456 6 -121 15 -206 26 -242 14 -48 16 -88 10 -296 -6 -225 -5 -241 12 -263
18 -21 21 -22 35 -8 15 15 38 116 38 165 0 12 4 22 9 22 14 0 61 48 61 64 0 8
-22 41 -50 74 l-50 60 30 6 c48 9 48 32 1 119 l-43 78 17 36 c22 45 15 103
-22 185 -27 61 -25 93 8 93 19 0 64 -87 84 -160 14 -49 24 -66 52 -85 124 -85
214 -266 199 -398 -8 -66 -21 -93 -41 -85 -25 9 -35 37 -51 150 -17 122 -31
178 -50 194 -33 27 -29 -121 7 -263 28 -113 34 -121 89 -141 122 -43 128 -219
10 -272 -31 -14 -48 -16 -68 -9 -39 14 -33 35 16 62 23 13 42 28 42 33 0 5
-15 17 -34 26 -32 15 -37 15 -59 0 -13 -8 -52 -61 -87 -117 -58 -95 -102 -140
-137 -140 -27 0 -11 32 53 107 36 43 74 95 85 115 25 48 36 123 19 133 -19 12
-68 -43 -102 -115 -24 -49 -53 -85 -120 -148 -150 -142 -169 -201 -105 -328
19 -38 67 -110 105 -160 111 -143 161 -234 129 -234 -20 0 -69 -40 -64 -53 7
-21 51 -24 76 -5 40 30 65 23 116 -34 75 -84 127 -101 159 -53 9 14 22 25 29
25 7 0 22 7 34 15 18 13 20 19 10 44 -9 24 -7 33 12 60 40 55 89 33 127 -58
18 -42 18 -61 1 -61 -20 0 -41 -29 -61 -83 -15 -40 -39 -67 -60 -67 -3 0 -6
16 -6 35 0 22 -6 38 -15 41 -7 3 -54 -6 -102 -20 -48 -14 -93 -26 -99 -26 -6
0 -14 13 -17 29 -11 54 -72 47 -84 -10 -3 -16 -9 -31 -12 -34 -15 -9 -94 37
-142 82 -69 64 -102 123 -101 179 0 25 5 51 11 58 9 11 3 16 -32 24 -80 21
-141 77 -156 144 -7 28 -3 46 16 87 35 74 27 104 -52 190 -35 38 -69 80 -76
92 -6 13 -14 61 -16 107 -5 96 -16 134 -36 126 -24 -9 -36 -49 -31 -110 9
-112 -38 -146 -99 -72 -59 72 -62 90 -27 166 16 35 30 70 30 78 0 10 12 14 39
14 83 0 123 37 101 91 -11 26 -57 69 -74 69 -3 0 -6 -8 -6 -19 0 -10 -7 -24
-15 -31 -19 -16 -63 10 -69 43 -3 12 -21 87 -40 167 -19 80 -40 183 -45 229
-12 91 -28 121 -68 121 -28 0 -55 -26 -82 -77 -28 -56 -34 -120 -21 -220 23
-170 -21 -299 -140 -413 -39 -37 -70 -74 -70 -82 0 -9 -8 -26 -19 -39 -24 -30
-44 -21 -134 61 -37 34 -70 60 -73 57 -22 -22 81 -128 160 -165 138 -65 259
-53 335 33 80 92 81 181 1 248 -29 25 -30 26 -10 37 27 15 50 62 50 104 0 19
-9 74 -20 121 -27 115 -26 137 3 133 35 -5 55 -60 66 -188 5 -63 17 -144 27
-180 22 -88 16 -229 -13 -285 -43 -81 -104 -116 -217 -123 l-79 -5 56 -51 c94
-84 232 -336 257 -467 6 -29 10 -80 10 -115 l0 -64 38 -19 c51 -26 116 -79
237 -191 114 -107 175 -149 263 -185 56 -23 68 -25 100 -14 48 15 102 56 102
76 0 13 -8 15 -49 10 -39 -5 -52 -2 -65 12 -9 10 -16 22 -16 28 0 31 124 44
184 19 18 -7 55 -36 82 -63 67 -67 163 -122 372 -213 97 -42 218 -103 267
-135 114 -74 201 -115 242 -115 38 0 80 17 87 36 18 47 -64 122 -167 153 -180
53 -208 63 -217 74 -77 99 -116 125 -257 171 -45 15 -100 40 -122 56 -38 28
-78 76 -70 85 2 2 42 -9 89 -24 111 -36 251 -108 335 -171 90 -68 122 -83 266
-126 129 -38 183 -61 235 -100 17 -13 38 -24 46 -24 16 0 150 -52 181 -70 14
-9 17 -6 17 16 0 65 -75 119 -255 184 -49 18 -116 48 -147 67 -32 19 -116 56
-188 83 -185 70 -238 101 -282 163 -23 32 -26 80 -6 104 36 44 204 -31 184
-83 -5 -13 -14 -15 -38 -10 -22 4 -29 3 -22 -4 5 -5 63 -24 129 -40 65 -17
140 -41 165 -54 26 -13 66 -27 90 -31 33 -6 56 -20 109 -70 37 -35 101 -83
142 -106 242 -137 458 -357 571 -584 31 -60 81 -159 112 -220 31 -60 56 -117
56 -125 0 -24 -133 114 -284 295 -181 215 -256 294 -256 265 0 -32 38 -106 94
-180 124 -165 239 -301 337 -399 149 -148 228 -280 229 -379 0 -20 7 -46 15
-56 26 -34 17 -35 -55 -5 -66 28 -74 29 -130 19 -105 -19 -189 10 -265 91 -26
27 -58 75 -71 106 -14 31 -40 73 -57 94 -18 21 -56 77 -86 126 -113 183 -181
280 -225 321 -81 75 -121 40 -47 -41 21 -23 91 -130 156 -237 131 -218 164
-267 212 -324 39 -47 43 -86 11 -116 -41 -38 -124 -17 -153 39 -9 18 -28 34
-49 41 -52 17 -92 69 -117 153 -46 157 -50 166 -93 204 -23 21 -48 54 -56 73
-32 81 -105 164 -185 210 -65 38 -94 70 -148 169 -63 115 -89 135 -164 126
-43 -4 -53 -2 -53 10 0 22 38 42 103 54 70 13 77 17 77 42 0 16 -7 19 -41 19
-25 0 -78 16 -137 40 -161 67 -197 63 -231 -30 -9 -24 -21 -45 -28 -47 -6 -2
-22 29 -38 76 -21 64 -33 85 -58 103 -18 12 -57 43 -88 70 -112 95 -150 101
-214 31 -55 -60 -86 -61 -177 -8 -37 23 -81 40 -108 43 -25 3 -56 13 -69 23
-40 32 -97 40 -272 42 -117 2 -172 6 -181 15 -18 18 2 32 70 48 51 12 66 12
108 -1 68 -21 91 -19 119 10 35 34 34 93 -1 134 -28 34 -44 39 -44 15 0 -9
-15 -31 -33 -49 -59 -59 -144 -56 -170 7 -20 47 -34 56 -118 69 -96 15 -119
29 -162 103 -19 33 -70 102 -112 151 -43 50 -95 113 -115 140 -44 59 -78 91
-87 82 -10 -11 28 -86 73 -144 56 -72 70 -107 56 -139 -23 -49 -101 -56 -155
-14 -43 34 -98 150 -71 150 18 0 78 -47 115 -88 46 -53 43 -43 -13 41 -57 84
-88 156 -88 205 0 39 -2 41 -19 31 -27 -18 -48 -5 -79 47 -58 99 -49 94 -178
94 -118 0 -166 11 -193 43 -7 10 -25 17 -40 17 -72 0 -103 20 -219 138 l-114
117 -29 -33 c-37 -41 -42 -117 -12 -177 20 -39 80 -103 115 -121 33 -17 108
-18 143 -2 22 10 29 9 47 -9 l21 -21 -31 -16 c-29 -15 -31 -20 -34 -78 -2 -36
-8 -63 -15 -65 -6 -2 -39 21 -72 51 -39 36 -74 59 -103 66 -27 8 -58 27 -84
54 -50 49 -72 113 -82 237 -8 91 -25 117 -57 86 -9 -9 -19 -17 -22 -17 -3 0
-33 17 -67 37 -39 24 -122 99 -236 213 -96 97 -197 191 -223 209 -52 35 -56
54 -14 59 19 2 36 -5 57 -26 16 -17 44 -35 62 -41 57 -20 103 -59 194 -164 65
-75 90 -111 94 -137 l6 -35 33 65 c18 36 44 77 58 92 30 31 23 48 -18 48 -17
0 -39 5 -50 11 -19 9 -19 12 -6 27 8 9 20 36 26 59 14 52 25 59 57 38 45 -29
64 -73 64 -150 0 -87 14 -140 43 -160 26 -18 77 -20 77 -2 0 39 100 106 130
87 12 -8 13 -14 2 -42 -18 -47 -18 -50 -5 -55 19 -7 109 83 133 131 39 81 20
136 -46 136 -43 0 -78 -18 -171 -87 -95 -70 -107 -70 -79 -1 18 42 36 58 90
79 27 10 46 26 56 47 10 19 25 32 43 36 20 4 27 11 27 29 0 52 -44 61 -102 20
-52 -35 -102 -33 -225 8 -159 53 -209 43 -232 -44 -5 -23 -17 -51 -25 -62 -14
-19 -15 -17 -16 25 0 58 -8 68 -61 85 -24 7 -118 42 -209 78 -91 36 -200 77
-242 92 l-77 27 32 22 c76 51 68 126 -24 231 -64 72 -129 296 -129 440 1 127
19 214 88 420 64 192 76 243 64 262 -4 7 -25 18 -47 25 -34 11 -40 18 -43 43
-2 20 4 38 19 54 l22 24 19 -24 c61 -80 81 -99 101 -99 12 0 67 30 122 66 169
110 548 284 571 262 14 -15 -19 -37 -107 -68 -73 -27 -102 -44 -154 -91 -44
-40 -104 -78 -193 -123 -100 -51 -139 -77 -171 -114 -51 -57 -165 -228 -192
-285 -26 -59 -25 -135 4 -178 27 -40 69 -58 91 -40 14 11 13 18 -9 62 -14 26
-25 55 -25 64 0 23 28 30 48 12 58 -51 147 -10 193 88 24 52 24 102 -1 143
-15 25 -17 32 -6 32 20 0 43 -25 67 -74 12 -22 28 -49 37 -58 35 -41 172 1
172 53 0 9 -30 44 -66 77 l-67 60 22 36 c39 62 136 126 194 126 49 0 59 -19
58 -109 -1 -92 4 -106 81 -215 54 -78 64 -134 29 -177 l-18 -23 -17 52 c-20
59 -31 65 -41 22 -4 -16 -10 -30 -14 -30 -4 0 -20 14 -36 30 -37 39 -59 38
-106 -5 -48 -43 -65 -44 -114 -5 -21 17 -41 30 -45 30 -3 0 -17 -19 -30 -42
-53 -96 -97 -131 -180 -140 -15 -2 -33 -16 -47 -37 -29 -42 -29 -46 1 -76 34
-34 103 -42 164 -20 62 23 153 30 209 16 25 -7 107 -39 182 -73 177 -80 268
-109 301 -96 14 5 47 34 73 64 62 69 90 73 105 12 13 -52 54 -116 90 -143 42
-31 103 -27 142 10 17 16 33 41 37 55 3 14 26 73 49 132 54 132 59 201 18 255
-14 18 -32 33 -40 33 -21 0 -54 37 -54 60 0 11 15 37 34 57 114 127 115 177 9
393 -31 62 -47 108 -47 135 l-1 40 75 3 c48 2 80 8 91 18 15 13 17 13 23 -2 8
-20 -11 -43 -76 -91 -39 -28 -48 -40 -48 -65 0 -36 38 -108 57 -108 18 0 40
39 49 85 21 122 115 245 186 245 40 0 88 -53 88 -96 0 -43 15 -50 80 -34 60
14 96 7 105 -20 8 -24 54 -50 88 -50 50 0 55 84 10 177 -9 19 -13 36 -10 40
14 14 35 -10 72 -82 42 -80 83 -125 116 -125 12 0 19 -7 19 -20 0 -25 30 -44
117 -74 87 -30 111 -42 145 -73 52 -49 64 1 23 93 -38 86 -31 96 31 42 49 -43
60 -74 74 -198 15 -135 33 -170 104 -204 66 -32 118 -34 146 -6 27 27 25 44
-7 70 -20 15 -37 20 -58 17 -16 -3 -49 -9 -72 -12 -38 -7 -43 -5 -43 11 0 34
89 151 132 175 11 6 26 5 44 -3 21 -10 41 -42 89 -143 58 -122 104 -185 137
-185 20 0 4 132 -22 184 -34 68 -132 178 -230 261 -46 39 -95 80 -109 92 l-26
22 72 1 72 0 -40 118 c-41 118 -67 256 -56 287 9 22 42 4 61 -33z m-1463 -2
c26 -25 30 -36 27 -72 -3 -39 -6 -43 -32 -46 -53 -6 -127 96 -96 133 21 25 68
18 101 -15z m-3069 -47 c35 -31 16 -73 -34 -73 -32 0 -47 35 -28 69 13 25 37
27 62 4z m1435 -25 c27 -21 25 -89 -2 -70 -19 13 -55 65 -55 79 0 15 33 10 57
-9z m-128 -24 c16 -20 18 -31 10 -45 -13 -24 -26 -24 -39 0 -13 24 -13 71 -1
71 5 0 19 -12 30 -26z m-1079 -16 c0 -17 -5 -46 -12 -64 -15 -42 -3 -58 58
-73 52 -13 57 -35 12 -60 -23 -13 -30 -13 -67 3 -61 28 -72 78 -39 171 23 61
48 74 48 23z m3328 18 c26 -13 60 -61 51 -70 -2 -3 -27 5 -54 16 -28 11 -61
24 -75 30 -24 9 -24 10 -5 24 24 18 49 18 83 0z m-2387 -42 c19 -17 19 -19 2
-25 -45 -18 -193 -2 -193 21 0 32 156 36 191 4z m-1636 -85 c-4 -33 -4 -59 0
-59 4 0 25 16 46 35 40 36 69 45 69 23 0 -7 -14 -44 -31 -83 -18 -43 -32 -95
-35 -135 -2 -35 -7 -67 -10 -70 -13 -12 -64 64 -80 117 -19 66 -14 151 12 207
24 50 37 34 29 -35z m2207 51 c31 -6 62 -17 68 -25 18 -21 3 -72 -28 -96 -68
-53 -198 40 -163 117 9 21 16 25 39 20 15 -3 53 -10 84 -16z m-2360 -82 c25
-39 32 -79 33 -203 1 -100 7 -141 34 -245 18 -71 33 -154 34 -192 1 -36 4 -66
7 -65 18 4 52 -19 70 -47 20 -34 27 -100 11 -124 -6 -11 -17 -6 -45 19 -50 43
-61 68 -92 198 -29 127 -110 305 -143 316 -66 21 -116 -105 -75 -190 15 -33
17 -34 63 -28 69 8 75 -4 81 -155 l5 -126 29 -7 c52 -14 60 -56 26 -135 -11
-26 -25 -65 -30 -87 -23 -106 81 -188 147 -115 13 14 18 36 18 76 0 42 4 57
18 66 23 14 50 -18 97 -115 l34 -69 103 -50 c95 -46 123 -57 123 -46 0 26
-106 206 -121 206 -4 0 -10 -11 -13 -25 -4 -14 -11 -25 -17 -25 -7 0 -10 30
-7 88 l3 87 -60 0 c-58 0 -60 1 -63 28 -3 22 9 40 61 95 75 78 100 121 91 157
-6 25 -57 75 -76 75 -6 0 -25 -16 -42 -35 -18 -19 -37 -35 -44 -35 -19 0 -60
63 -80 125 -25 77 -37 155 -23 155 12 0 41 -52 41 -73 0 -17 36 -50 79 -72 65
-33 201 -19 201 19 0 23 -59 66 -91 66 -39 0 -37 18 6 36 84 35 175 -1 161
-64 -24 -103 -16 -146 33 -175 57 -33 137 -16 180 39 l21 26 -44 43 c-82 79
-127 200 -107 282 12 48 63 113 88 113 39 0 40 -85 1 -165 -17 -35 -20 -51
-12 -72 5 -15 17 -29 25 -31 24 -4 74 42 97 89 23 46 29 41 42 -38 9 -53 -4
-353 -16 -392 -3 -10 -15 -4 -42 22 -45 44 -84 49 -107 14 -24 -37 -58 -47
-159 -47 -110 0 -117 -5 -124 -85 -8 -97 57 -185 136 -185 40 0 62 31 62 90 0
78 46 131 116 133 64 2 92 -50 79 -146 l-7 -51 -32 59 -31 60 -5 -60 c-6 -67
-21 -98 -92 -199 -26 -38 -48 -77 -48 -87 0 -33 -24 -70 -54 -86 -20 -11 -72
-19 -146 -23 -63 -4 -123 -10 -133 -15 -29 -12 -30 -48 -2 -110 29 -66 27 -85
-9 -85 -18 0 -30 9 -42 32 -19 36 -43 163 -44 226 l0 43 -28 -21 c-38 -28 -73
-19 -123 31 -54 54 -89 129 -105 227 -7 46 -16 93 -19 103 -10 29 -38 23 -76
-17 -43 -46 -85 -64 -146 -64 -125 0 -253 122 -253 240 0 14 -5 68 -12 120
-30 244 41 218 82 -30 37 -231 75 -282 170 -231 19 10 49 21 67 25 41 9 81 50
89 91 7 40 -17 138 -51 205 -24 48 -25 51 -8 76 16 25 16 27 -2 40 -10 8 -25
14 -32 14 -29 0 -73 31 -79 56 -6 25 -7 25 -21 4 -8 -11 -24 -20 -35 -20 -19
0 -20 4 -15 51 4 28 15 70 26 93 10 22 22 52 26 66 17 57 100 130 149 130 22
0 64 -40 84 -80 9 -19 24 -35 32 -35 19 0 38 71 39 148 1 90 31 125 63 75z
m3456 -20 c46 -28 73 -68 131 -192 28 -59 67 -126 86 -147 19 -22 35 -48 35
-59 0 -27 -35 -47 -95 -55 -60 -9 -81 -19 -95 -45 -21 -40 32 -87 66 -59 11 9
14 22 9 47 -6 31 -4 33 17 30 31 -4 34 -46 10 -118 -16 -46 -26 -59 -60 -78
-41 -23 -194 -64 -284 -77 -48 -6 -48 -7 -48 -44 0 -75 39 -79 170 -16 88 44
94 45 112 28 16 -14 24 -15 52 -5 48 18 90 15 111 -8 24 -26 9 -43 -50 -60
-69 -19 -75 -34 -30 -73 43 -37 41 -57 -5 -57 -16 0 -41 -5 -56 -10 l-27 -11
29 -30 c27 -28 28 -31 13 -57 -9 -18 -25 -28 -43 -30 -28 -4 -29 -3 -22 37 13
85 -41 145 -134 145 -25 0 -60 -9 -79 -18 l-34 -18 23 -18 c21 -15 22 -20 11
-34 -7 -9 -19 -16 -26 -16 -6 0 -20 -9 -30 -20 -10 -11 -28 -20 -40 -20 -18 0
-27 11 -45 58 -25 63 -40 85 -40 60 0 -22 -47 -58 -74 -58 -35 0 -66 28 -66
59 0 26 -4 29 -42 35 -29 5 -52 18 -80 45 -40 41 -47 65 -24 96 12 17 16 17
52 3 121 -47 232 -16 265 75 10 30 14 32 50 29 72 -7 58 54 -31 129 -60 50
-66 85 -23 119 55 43 123 3 123 -74 1 -54 33 -123 64 -137 43 -20 74 -4 116
64 41 63 49 104 28 125 -27 27 -58 8 -58 -35 0 -17 -28 -42 -47 -43 -9 0 -13
21 -13 75 0 62 -4 79 -20 95 -23 23 -26 72 -5 90 11 9 27 0 84 -54 78 -74 106
-82 146 -42 33 33 42 73 22 94 -15 14 -21 14 -74 -1 -32 -9 -61 -13 -65 -9 -4
4 -19 43 -33 87 -29 87 -41 168 -31 210 6 24 10 26 39 20 18 -4 47 -16 65 -27z
m-196 -38 c34 -26 58 -79 58 -128 0 -33 -6 -45 -31 -66 -17 -14 -38 -26 -48
-26 -9 0 -26 -7 -37 -15 -18 -14 -18 -14 10 -15 28 0 28 -1 12 -19 -42 -46
-218 -101 -257 -80 -23 12 -20 27 16 99 37 75 40 103 12 136 -24 27 -25 28
-66 14 -57 -18 -63 -4 -17 36 43 37 125 67 161 58 18 -4 21 -12 21 -47 -1 -36
2 -42 21 -45 34 -5 77 42 69 74 -4 14 -4 29 -1 34 10 16 51 11 77 -10z m-1751
-18 c27 -18 84 -81 78 -85 -2 -2 -17 -8 -33 -15 -26 -12 -28 -15 -20 -50 11
-53 11 -96 -1 -101 -25 -9 -106 217 -91 255 7 19 35 18 67 -4z m443 -5 c12 -9
19 -27 20 -55 1 -36 4 -42 27 -47 38 -9 65 -39 47 -54 -37 -32 -156 -94 -180
-94 -34 0 -75 36 -83 73 -11 52 35 131 100 171 36 22 45 23 69 6z m-244 -93
c0 -37 -9 -48 -27 -33 -16 14 -17 43 -1 69 15 24 28 8 28 -36z m-2287 -106 c6
-46 -7 -73 -23 -48 -11 17 -13 51 -4 74 11 28 21 17 27 -26z m95 -61 c3 -52
-11 -63 -29 -23 -13 29 -4 79 14 73 7 -2 13 -25 15 -50z m1694 36 c25 -22 23
-39 -7 -59 -50 -33 -235 -4 -235 36 0 6 19 10 43 11 23 0 58 7 77 14 49 19
100 18 122 -2z m162 -66 c17 -13 17 -15 2 -46 -20 -37 -44 -50 -57 -30 -13 22
9 89 30 89 4 0 15 -6 25 -13z m318 -69 c12 -41 -2 -95 -22 -83 -13 8 -30 73
-30 119 0 39 0 39 20 21 11 -10 25 -36 32 -57z m218 32 c25 -25 25 -36 0 -130
-25 -94 -25 -126 -1 -181 26 -59 37 -144 20 -155 -21 -13 -64 49 -65 93 -1 21
-20 81 -42 133 -22 52 -43 111 -47 130 -7 38 6 84 32 112 22 24 78 23 103 -2z
m-431 -52 c1 -21 -4 -28 -18 -28 -27 0 -31 20 -14 61 14 31 16 32 23 14 5 -11
9 -32 9 -47z m-280 -45 c1 -29 -19 -40 -35 -19 -13 18 -10 40 10 64 8 11 11
10 17 -5 4 -10 8 -28 8 -40z m-140 -33 c0 -19 -4 -44 -9 -55 -7 -19 -9 -18
-19 8 -14 36 -14 73 1 100 11 21 11 21 19 2 4 -11 8 -36 8 -55z m-1422 12 c32
-20 41 -140 14 -191 -15 -28 -50 -46 -63 -33 -17 17 -58 125 -58 152 1 52 67
97 107 72z m2809 -56 c18 -14 18 -16 -13 -47 -27 -27 -34 -30 -47 -19 -20 16
-20 30 0 58 18 26 33 28 60 8z m-936 -30 c0 -52 -29 -179 -44 -195 -21 -20
-48 28 -54 94 -8 92 14 135 69 135 26 0 29 -3 29 -34z m509 -63 c9 -17 14 -60
12 -95 -3 -52 -61 19 -61 74 0 41 31 53 49 21z m-311 -263 c34 -51 43 -100 36
-202 -11 -169 55 -348 129 -348 31 0 77 54 77 90 0 34 -22 60 -108 128 -48 38
-58 78 -20 84 12 2 36 23 55 48 72 101 69 97 91 77 26 -24 29 -39 47 -247 8
-96 21 -198 28 -227 l14 -52 -26 18 c-45 31 -68 35 -81 11 -6 -12 -10 -34 -8
-49 1 -15 -5 -39 -14 -52 -9 -14 -41 -74 -71 -134 -78 -154 -98 -179 -150
-185 -39 -5 -42 -7 -45 -38 -5 -54 65 -155 113 -164 18 -3 20 2 18 39 l-2 41
36 -21 c86 -53 154 -130 173 -198 14 -47 -2 -69 -48 -69 -45 0 -72 19 -160
112 -66 69 -99 86 -133 68 -16 -9 -19 -17 -14 -44 9 -46 -12 -61 -73 -52 -165
24 -179 20 -115 -33 44 -36 106 -51 215 -51 61 0 92 -5 123 -20 47 -23 61 -45
70 -109 19 -139 135 -230 258 -203 28 7 68 13 87 15 50 3 53 41 8 92 -45 51
-80 65 -155 58 -56 -5 -61 -4 -68 16 -4 13 5 50 24 101 32 83 37 110 22 125
-10 11 -14 36 -12 73 2 34 44 67 109 86 87 24 102 38 102 95 0 70 28 88 91 56
41 -22 69 -71 69 -122 0 -58 -40 -101 -148 -161 -121 -67 -143 -110 -103 -199
21 -45 58 -69 160 -104 105 -37 122 -61 75 -110 l-26 -27 22 -12 c30 -16 147
-16 196 0 132 42 85 111 -133 194 -116 44 -151 62 -185 94 -45 42 -34 102 19
102 26 0 30 -21 8 -40 -25 -20 -17 -34 25 -48 93 -29 207 -2 253 60 31 41 25
77 -17 114 -41 36 -46 54 -13 54 28 0 95 -41 164 -101 28 -24 87 -64 132 -88
98 -53 192 -136 231 -205 35 -60 37 -77 10 -101 -36 -32 -64 -13 -122 81 -84
138 -175 197 -274 178 -39 -7 -43 -18 -13 -34 19 -11 19 -13 5 -35 -38 -57 -7
-111 124 -216 57 -45 90 -78 88 -88 -5 -25 -71 -25 -141 -2 -73 25 -158 27
-259 5 -45 -9 -107 -14 -163 -12 l-90 3 -3 -27 c-3 -22 4 -31 40 -52 24 -14
68 -35 98 -47 30 -13 79 -38 108 -56 66 -41 60 -56 -32 -73 -86 -16 -96 -24
-57 -45 45 -22 123 -34 251 -36 87 -2 114 1 134 15 50 32 36 54 -128 204 -34
31 -46 52 -28 52 4 0 49 -24 100 -54 50 -30 102 -58 114 -62 48 -14 205 -94
246 -124 51 -37 54 -69 9 -81 -21 -6 -38 -1 -70 17 -58 33 -150 34 -198 1 -58
-38 -69 -74 -69 -222 0 -168 17 -415 50 -720 39 -364 52 -558 57 -835 6 -337
-3 -466 -40 -558 -19 -49 -28 -59 -72 -81 -70 -36 -190 -35 -286 2 -68 26
-142 68 -154 87 -10 16 -55 12 -62 -6 -3 -9 2 -32 12 -51 42 -76 107 -105 285
-123 137 -13 173 -38 156 -106 -5 -18 -13 -24 -33 -24 -19 0 -45 -19 -96 -70
-38 -38 -73 -70 -77 -70 -22 0 -13 28 17 56 39 37 41 52 11 89 -28 35 -92 65
-143 65 -37 -1 -41 -4 -58 -40 -19 -41 -50 -66 -67 -55 -6 3 -10 22 -10 41 0
19 -3 34 -6 34 -21 0 -80 -50 -129 -110 -62 -76 -81 -88 -61 -37 53 127 8 217
-108 217 -25 0 -123 -14 -218 -30 -192 -34 -398 -50 -398 -32 0 18 49 39 162
71 147 41 628 292 628 327 0 24 29 28 65 8 54 -29 58 -18 65 183 6 162 8 183
31 233 14 30 38 66 52 80 65 61 116 334 136 735 6 117 17 210 36 298 26 127
30 235 10 323 -5 24 2 47 40 119 53 101 55 129 10 133 -16 2 -48 9 -70 17 -22
8 -62 17 -88 20 -27 4 -57 15 -67 25 -15 15 -16 24 -8 62 16 67 3 113 -45 165
-52 57 -179 142 -316 214 -110 57 -201 132 -201 165 0 35 14 46 45 34 38 -14
42 -7 10 19 -38 29 -86 36 -123 17 -55 -28 -72 -21 -147 57 -82 86 -101 100
-181 128 -95 33 -159 48 -252 59 -89 10 -212 4 -212 -11 0 -5 -13 -15 -30 -24
-66 -34 -150 -5 -136 48 5 23 10 26 34 21 18 -4 32 -1 40 9 10 12 7 20 -20 42
-29 24 -38 27 -84 21 -29 -3 -59 -3 -68 0 -17 7 -50 56 -61 92 l-6 22 34 -23
c36 -25 135 -60 298 -107 53 -15 107 -31 120 -35 l22 -7 -21 27 c-41 52 -24
59 95 39 123 -20 128 -19 143 16 9 21 19 30 35 30 24 0 69 -44 80 -78 7 -25
47 -42 99 -42 56 0 81 18 72 53 -5 23 -11 26 -48 24 -35 -2 -44 2 -56 24 -19
33 -9 75 20 85 17 5 27 -1 47 -25 51 -61 103 -29 106 67 2 35 11 76 26 107 22
46 24 62 23 195 -1 140 -14 222 -59 355 -16 48 67 -64 115 -155 32 -60 68
-114 92 -136 38 -34 40 -35 59 -18 35 32 9 87 -99 209 -39 44 -62 79 -67 102
-15 79 -107 112 -160 58 -30 -30 -31 -40 -4 -85 19 -30 22 -51 23 -150 0 -98
-3 -122 -21 -163 -25 -53 -58 -72 -110 -62 -61 11 -57 56 19 187 59 102 68
149 39 196 -16 25 -28 32 -51 32 -43 0 -71 -34 -98 -117 -12 -38 -32 -79 -43
-92 -25 -27 -52 -24 -126 11 -44 21 -52 31 -96 116 -34 65 -53 92 -66 92 -30
0 -43 -24 -35 -64 5 -30 3 -36 -12 -36 -10 0 -39 18 -65 40 -26 22 -52 40 -56
40 -14 0 -65 -58 -117 -132 -81 -115 -131 -146 -189 -117 -32 17 -77 60 -93
91 -12 24 -12 29 3 43 17 17 46 17 138 0 41 -8 81 19 145 97 108 133 134 161
164 179 38 23 118 26 136 4 7 -8 21 -15 31 -15 16 0 19 8 19 58 0 64 6 78 35
83 13 3 30 26 50 66 40 84 48 90 74 64 12 -12 21 -31 21 -43 0 -29 -38 -110
-86 -185 -79 -123 -92 -184 -51 -244 18 -27 30 -35 59 -37 30 -3 44 3 73 30
30 28 41 51 68 143 35 117 63 180 53 116 -14 -81 55 -105 161 -55 84 40 167
134 118 134 -25 0 -98 -32 -133 -59 -36 -26 -64 -22 -70 13 -7 34 28 124 65
165 71 79 152 83 201 11z m5020 12 c20 -11 59 -25 85 -32 56 -15 67 -32 42
-60 -38 -42 -110 -15 -156 58 -16 25 -29 55 -29 66 1 19 1 20 11 3 5 -9 27
-25 47 -35z m-7397 -102 c5 0 18 -9 29 -20 21 -21 28 -80 9 -80 -13 0 -80 56
-93 78 -10 17 11 35 32 27 8 -3 18 -5 23 -5z m7094 -81 c38 -35 58 -69 41 -69
-17 0 -40 18 -76 61 -52 62 -29 67 35 8z m-6805 -17 c30 -15 58 -29 62 -30 5
-2 7 7 6 20 -5 44 23 24 46 -34 59 -145 196 -258 312 -258 31 0 34 -2 34 -31
0 -20 -10 -40 -29 -60 -69 -68 -200 -13 -217 91 -3 20 -14 47 -25 61 -16 20
-20 22 -29 9 -6 -8 -9 -44 -7 -80 6 -122 137 -348 229 -396 15 -8 46 -14 68
-14 37 0 48 7 99 55 32 30 65 55 73 55 23 0 38 -53 38 -137 l0 -74 22 15 c30
21 65 20 76 -1 12 -23 6 -41 -29 -81 -55 -63 -29 -113 96 -182 33 -19 94 -62
135 -97 98 -84 165 -116 250 -121 86 -4 110 -10 110 -26 0 -20 -26 -27 -56
-15 -32 12 -38 7 -29 -20 9 -28 30 -38 122 -57 43 -9 89 -22 102 -29 l25 -12
-22 -12 c-21 -11 -21 -14 -8 -39 8 -15 49 -56 91 -90 80 -67 95 -86 76 -105
-19 -19 -116 18 -145 56 -21 27 -26 29 -32 14 -12 -33 7 -68 76 -140 65 -69
67 -73 40 -69 -45 6 -48 -20 -11 -80 36 -57 30 -78 -21 -78 -25 0 -32 6 -47
43 -11 23 -27 89 -37 146 -22 131 -34 146 -127 166 -38 7 -71 16 -74 19 -10 9
57 36 91 36 76 0 49 35 -111 144 -54 36 -127 87 -162 112 -73 51 -103 54 -111
11 l-5 -29 -21 24 c-11 12 -42 52 -67 88 -73 105 -121 154 -184 188 -32 18
-67 39 -78 47 -31 22 -61 -4 -96 -81 -39 -89 -49 -86 -63 20 -3 22 -16 60 -29
85 -89 170 -107 208 -107 228 0 20 -5 23 -40 23 -46 0 -63 19 -79 91 -17 74
-28 95 -75 146 -25 26 -68 88 -95 139 -54 98 -131 207 -139 199 -3 -3 15 -49
41 -103 25 -53 49 -108 53 -122 6 -23 6 -24 -17 -9 -39 24 -77 115 -104 243
-26 127 -24 149 18 166 31 11 73 3 137 -28z m7215 32 c8 -4 23 -20 31 -37 17
-32 8 -47 -28 -47 -24 0 -51 44 -43 70 7 21 14 24 40 14z m-826 -265 c31 -34
41 -92 30 -188 -10 -97 -21 -143 -44 -177 -30 -47 -75 -15 -75 53 0 87 -67
223 -111 223 -24 0 -24 -6 1 -37 36 -46 19 -73 -33 -54 -46 18 -72 96 -44 132
31 41 113 52 168 23 17 -8 32 -14 33 -12 1 2 7 15 14 31 14 32 34 35 61 6z
m935 -24 c32 -9 108 -41 168 -71 104 -54 128 -75 128 -115 0 -20 -50 -7 -137
35 -142 69 -221 72 -157 5 18 -19 43 -32 68 -36 22 -3 50 -16 63 -29 20 -20
21 -26 12 -54 -6 -17 -23 -38 -37 -48 -25 -16 -25 -16 -97 59 -72 76 -147 176
-159 215 -7 23 6 39 39 47 35 8 50 7 109 -8z m-5895 -165 c20 -10 32 -37 51
-113 16 -62 1 -80 -79 -96 -72 -14 -85 -28 -78 -81 4 -32 2 -40 -14 -45 -10
-4 -24 -3 -30 1 -22 13 -39 74 -39 137 0 83 23 117 79 117 36 0 37 1 33 30 -2
16 -2 37 2 45 6 17 48 20 75 5z m-307 -98 c18 -31 33 -92 23 -92 -4 0 -25 14
-46 31 -29 23 -39 38 -39 59 0 47 35 48 62 2z m-610 -34 l21 -21 -23 -19 c-28
-22 -73 -23 -91 -2 -11 14 -10 20 14 40 35 30 51 30 79 2z m6744 -33 c18 -28
13 -55 -11 -55 -17 0 -39 46 -31 67 8 20 24 16 42 -12z m-6436 -20 c42 -22 70
-63 70 -104 1 -20 7 -47 15 -61 37 -65 -1 -67 -84 -4 -93 69 -132 139 -99 172
16 16 63 15 98 -3z m904 -60 c22 -22 28 -49 17 -76 -9 -23 -17 -35 -69 -99
-41 -52 -126 -48 -151 6 -9 21 -8 34 10 72 20 46 21 47 33 23 l13 -23 21 27
c12 15 22 32 22 36 0 5 9 18 20 29 24 24 63 26 84 5z m192 -72 c10 -15 10 -21
-3 -35 -34 -37 -76 -12 -53 31 13 26 38 27 56 4z m482 -23 c13 -21 7 -70 -9
-70 -7 0 -29 61 -29 83 0 15 26 6 38 -13z m-2734 -98 c-6 -9 -17 -17 -24 -17
-17 0 -34 50 -26 72 6 14 11 13 34 -10 22 -22 25 -31 16 -45z m1400 6 c7 -35
-5 -54 -28 -45 -18 7 -21 30 -6 58 15 28 27 23 34 -13z m203 10 c57 -53 -2
-103 -81 -67 -34 16 -38 33 -15 63 25 32 64 34 96 4z m199 -51 c34 -30 25 -52
-19 -43 -69 14 -78 54 -15 65 4 0 19 -10 34 -22z m-1582 -113 c8 -30 -8 -91
-32 -122 l-17 -22 -53 36 c-65 44 -63 60 8 57 l53 -3 -7 56 -6 55 24 -16 c13
-9 27 -27 30 -41z m136 -33 c0 -11 3 -26 6 -35 3 -9 1 -16 -5 -16 -13 0 -61
96 -61 120 1 9 12 3 30 -18 17 -18 30 -41 30 -51z m7682 52 c20 -24 33 -119
17 -129 -15 -9 -66 46 -75 81 -4 18 -1 32 11 45 22 24 28 25 47 3z m-918 -139
c94 -47 176 -129 176 -176 0 -26 -43 -50 -75 -42 -29 7 -59 35 -156 144 -36
41 -64 81 -62 88 7 20 62 14 117 -14z m-1710 -15 c19 -15 26 -29 24 -48 -5
-39 -31 -37 -51 4 -31 64 -20 81 27 44z m-4866 -66 c28 -21 44 -63 32 -83 -6
-10 -21 -5 -59 19 -64 39 -89 40 -97 4 -3 -16 -10 -42 -15 -59 -6 -18 -7 -44
-3 -58 8 -33 101 -116 130 -116 39 0 45 -21 38 -118 -6 -81 -5 -91 13 -109 11
-11 26 -22 34 -25 13 -4 4 -28 -11 -28 -37 0 -111 111 -141 208 -15 51 -41 72
-87 72 -29 0 -35 -5 -48 -37 -25 -58 4 -180 56 -238 33 -36 30 -75 -6 -75 -56
0 -107 84 -121 198 -6 52 18 165 41 192 44 52 18 82 -93 106 -77 17 -81 19
-81 44 0 56 51 63 108 15 36 -30 37 -31 39 -2 2 29 74 92 121 106 51 14 119 7
150 -16z m1509 -47 c62 -68 112 -146 93 -146 -6 0 -32 16 -57 35 -25 19 -51
35 -57 35 -7 0 -20 -14 -30 -30 -22 -38 -58 -62 -79 -54 -9 3 -26 21 -38 40
-12 19 -29 34 -40 34 -10 0 -26 11 -35 25 -14 21 -15 31 -6 51 7 13 19 27 27
31 20 7 59 -28 75 -67 7 -16 18 -31 26 -34 23 -9 49 43 49 96 0 26 3 48 7 48
3 0 33 -29 65 -64z m-1933 -230 c20 -43 20 -65 1 -72 -22 -9 -43 13 -56 56
-23 77 20 89 55 16z m5593 11 c12 -11 25 -32 28 -48 19 -84 -97 -115 -179 -47
-42 35 -45 56 -12 87 44 42 122 46 163 8z m-4694 -42 c66 -63 75 -95 26 -95
-60 0 -129 63 -129 118 0 50 34 42 103 -23z m5349 34 c10 -5 25 -21 34 -34 13
-20 14 -28 4 -40 -14 -17 8 -66 66 -147 26 -37 32 -54 28 -76 -7 -35 7 -48 64
-55 24 -3 47 -8 50 -12 4 -4 -10 -22 -30 -41 -79 -72 -131 -41 -232 139 -32
58 -76 127 -97 152 -22 26 -39 57 -39 70 0 22 22 47 50 58 18 7 78 -1 102 -14z
m-5539 -51 c33 -65 90 -128 139 -155 21 -11 56 -17 95 -18 62 0 62 0 40 -17
-15 -12 -41 -18 -82 -18 -74 0 -130 25 -234 104 -41 31 -78 56 -83 56 -16 0
-7 18 12 23 11 3 26 23 36 46 22 55 40 50 77 -21z m1487 -53 c13 -14 59 -46
103 -72 116 -68 127 -115 39 -172 -85 -55 -129 -37 -118 47 5 42 2 57 -29 119
-48 98 -46 132 5 78z m2290 -66 l0 -51 25 16 c13 9 31 16 39 16 19 0 36 -31
36 -65 0 -40 27 -96 50 -102 16 -4 20 -14 20 -45 0 -50 -13 -74 -52 -94 -38
-20 -119 -14 -167 10 -37 19 -37 18 -10 -36 28 -55 85 -108 220 -205 112 -81
334 -286 358 -331 10 -20 5 -18 -44 13 -31 20 -92 54 -137 75 -54 27 -87 49
-99 69 -18 30 -65 50 -119 52 -14 0 -34 4 -45 8 -18 8 -17 10 12 27 18 11 33
21 33 24 0 3 -24 19 -53 37 -29 17 -73 49 -98 72 -25 22 -58 43 -73 47 -30 7
-40 23 -51 79 -3 21 -16 52 -27 68 -17 23 -19 35 -12 56 9 22 15 26 49 25 22
0 73 -15 113 -33 134 -59 137 -20 8 104 -123 117 -136 165 -50 181 18 3 38 12
45 20 21 25 29 15 29 -37z m-180 -59 c11 -11 20 -26 20 -32 1 -7 14 -29 30
-48 40 -46 40 -64 -2 -56 -36 7 -147 75 -162 99 -8 12 -5 21 8 36 25 27 79 28
106 1z m-2205 -15 c25 -24 34 -78 17 -89 -8 -5 -88 15 -140 35 -33 13 -24 40
18 61 48 24 76 22 105 -7z m3437 15 c54 -16 96 -55 109 -103 16 -60 43 -101
134 -198 64 -68 92 -109 133 -190 92 -187 66 -238 -45 -89 -36 47 -92 114
-126 150 -34 36 -92 115 -129 175 -37 61 -85 134 -107 164 -44 59 -48 70 -29
89 14 14 14 14 60 2z m-1669 -37 c33 -36 137 -194 137 -210 0 -21 -17 -15 -56
20 -45 38 -154 183 -154 203 0 24 45 16 73 -13z m3337 -29 c30 -9 79 -32 110
-51 68 -44 290 -262 290 -286 0 -41 -70 -73 -107 -49 -7 4 -32 35 -55 69 -24
34 -100 120 -170 192 -71 72 -128 133 -128 136 0 7 0 7 60 -11z m-6040 -19
c63 -8 110 -38 110 -70 0 -31 -3 -31 -88 0 -38 14 -87 25 -109 25 -27 0 -46 6
-58 20 -14 16 -15 20 -4 24 31 11 55 14 79 11 14 -2 45 -6 70 -10z m391 -37
c22 -24 39 -46 39 -50 0 -5 -22 -8 -48 -8 -27 0 -51 -2 -54 -5 -3 -3 0 -23 5
-44 8 -30 8 -43 -2 -55 -32 -39 -131 -3 -156 57 -7 17 -12 34 -10 36 2 2 20
-7 40 -19 45 -28 67 -22 56 17 -10 35 3 84 26 100 32 24 64 15 104 -29z m-772
-13 c33 -16 39 -41 20 -76 -14 -27 0 -42 52 -58 47 -14 47 -27 -1 -53 -72 -38
-157 -14 -278 76 -92 70 -118 114 -61 102 41 -8 125 -56 186 -106 64 -53 73
-50 26 8 -52 63 -73 98 -73 120 0 17 5 18 49 11 27 -4 63 -15 80 -24z m1806
-19 c53 -16 175 -90 175 -106 0 -19 -40 -30 -109 -30 -78 0 -160 25 -142 43
20 20 12 57 -14 69 -59 27 -185 -45 -171 -97 17 -59 18 -65 6 -65 -6 0 -25 13
-41 29 -58 58 -28 127 71 162 62 22 140 20 225 -5z m3950 -86 c8 -26 -10 -57
-48 -80 -41 -25 -57 -25 -57 1 0 68 87 134 105 79z m-6221 -45 c31 -30 56 -63
56 -73 0 -32 -34 -54 -76 -50 -32 2 -44 11 -71 46 -34 45 -41 79 -23 113 19
34 55 23 114 -36z m1022 -36 c83 -58 82 -55 31 -80 -57 -28 -77 -21 -77 27 0
20 -9 48 -21 65 -30 42 -5 38 67 -12z m2861 17 c22 -19 25 -27 16 -37 -10 -10
-21 -10 -52 -1 -44 14 -59 36 -33 51 26 16 38 13 69 -13z m-3609 -83 c22 -20
37 -69 23 -77 -11 -7 -71 60 -71 79 0 20 23 19 48 -2z m1376 -34 c-27 -54 -54
-61 -54 -14 0 14 11 32 27 45 36 28 50 12 27 -31z m-903 -10 c33 -35 38 -54
12 -46 -123 40 -146 53 -123 67 32 21 81 11 111 -21z m3176 17 c11 -10 -4 -17
-45 -23 -40 -5 -60 7 -46 28 6 11 79 7 91 -5z m-1377 -18 c53 -28 61 -45 23
-50 -38 -4 -41 -36 -9 -91 49 -84 21 -117 -48 -57 -35 31 -63 91 -51 110 4 6
0 22 -9 35 -19 29 -20 47 -4 63 18 18 49 15 98 -10z m-2030 -14 c23 -20 110
-170 110 -191 0 -20 -119 30 -176 73 -47 36 -56 56 -44 91 22 58 61 67 110 27z
m2204 10 c19 -18 21 -65 4 -82 -32 -32 -85 7 -69 51 8 20 32 44 48 47 1 0 9
-7 17 -16z m1002 -29 c37 -37 28 -59 -23 -63 -75 -5 -111 37 -61 72 32 22 55
20 84 -9z m3478 -35 c64 -33 157 -108 184 -148 15 -23 15 -25 -4 -39 -27 -21
-99 -12 -164 21 -59 30 -190 131 -190 146 0 6 9 19 20 30 29 29 84 25 154 -10z
m-3111 -30 c33 -16 34 -30 2 -68 -37 -44 -65 -47 -162 -17 -70 22 -89 25 -115
16 -39 -14 -38 -14 -38 2 0 19 49 62 85 76 39 14 192 8 228 -9z m-2704 -16
c38 -8 39 -17 5 -32 -29 -14 -64 -1 -64 23 0 16 12 18 59 9z m815 -81 c3 -7 0
-27 -6 -44 l-11 -32 -19 22 c-17 22 -25 71 -12 84 8 7 42 -14 48 -30z m-1394
-44 c0 -15 -4 -30 -9 -34 -13 -7 -34 62 -26 83 6 16 8 15 21 -2 8 -11 14 -32
14 -47z m296 15 c49 -28 94 -78 94 -104 0 -78 -64 -63 -152 35 -50 56 -64 85
-47 96 18 11 55 2 105 -27z m1311 4 c31 -29 29 -53 -7 -68 -24 -10 -33 -10
-45 0 -28 23 -13 90 19 90 5 0 20 -10 33 -22z m-852 -29 c37 -33 47 -72 19
-83 -9 -3 -37 -6 -63 -6 -75 0 -92 34 -45 89 32 39 45 39 89 0z m1100 -36 c-5
-10 -11 -44 -14 -76 -8 -72 -34 -102 -90 -102 -29 0 -47 8 -75 33 -66 57 -116
36 -116 -48 0 -42 -4 -52 -26 -66 -33 -22 -109 -29 -162 -15 -68 19 -67 60 0
61 24 0 29 5 39 46 21 84 113 146 193 130 99 -20 119 -18 181 18 70 39 80 42
70 19z m-769 -59 c8 -44 -10 -69 -31 -41 -10 14 -11 26 -3 48 13 39 26 37 34
-7z m1979 -37 c33 -16 65 -49 65 -67 0 -25 -39 -70 -60 -70 -27 0 -43 36 -37
80 4 33 1 39 -19 49 -33 15 -31 33 4 25 15 -4 36 -11 47 -17z m1176 -131 c24
-21 62 -47 84 -57 45 -21 131 -25 168 -8 22 10 24 16 20 50 -10 72 34 90 162
64 82 -16 125 -45 125 -82 0 -45 -94 -133 -143 -133 -21 0 -22 29 -2 57 13 19
13 22 -1 27 -48 19 -188 -3 -230 -36 -23 -19 -25 -26 -19 -62 3 -23 6 -58 6
-78 0 -21 4 -38 10 -38 6 0 30 16 55 36 62 51 77 42 68 -38 -3 -35 -13 -78
-21 -96 -24 -51 -89 -56 -110 -9 -6 12 -46 70 -90 129 -86 113 -103 149 -103
210 l0 38 -25 -16 c-14 -9 -31 -14 -39 -11 -20 8 -29 59 -21 118 l7 49 28 -38
c15 -21 47 -55 71 -76z m-1318 33 c-19 -32 -83 -87 -83 -71 0 13 80 102 91
102 6 0 2 -14 -8 -31z m3832 6 c14 -13 25 -31 25 -40 0 -31 39 -91 118 -182
44 -51 88 -106 98 -122 12 -20 26 -31 41 -31 27 0 47 -35 58 -97 4 -24 24 -68
46 -100 45 -68 39 -85 -20 -52 -30 16 -55 44 -88 98 -32 53 -104 134 -230 263
-101 102 -184 194 -184 205 -4 56 20 83 73 83 28 0 46 -7 63 -25z m-2736 -46
c17 -6 36 -19 41 -29 8 -16 3 -23 -32 -47 -52 -35 -70 -67 -57 -101 7 -19 6
-29 -7 -43 -10 -11 -23 -19 -30 -19 -18 0 -34 56 -34 121 0 53 -2 59 -27 71
-59 29 -29 56 63 57 28 1 65 -4 83 -10z m-3221 -21 c7 -7 12 -22 12 -33 0 -26
-34 -60 -49 -50 -14 8 -14 51 -1 76 12 22 21 24 38 7z m4496 -30 c43 -35 45
-60 10 -95 -26 -26 -27 -26 -40 -8 -8 10 -14 27 -14 37 0 11 -16 34 -36 52
-32 30 -35 35 -19 43 25 14 58 5 99 -29z m-3604 17 c15 -8 38 -26 49 -41 17
-22 20 -35 14 -84 -5 -52 -2 -66 26 -125 34 -73 40 -135 16 -155 -21 -17 -19
-47 6 -81 l20 -29 -34 -35 c-19 -19 -39 -35 -45 -35 -6 0 -19 15 -29 33 -16
30 -19 89 -11 220 1 24 -4 43 -15 54 -15 16 -18 16 -36 -1 -30 -27 -62 -112
-63 -166 -1 -45 4 -58 57 -135 67 -97 67 -118 1 -123 -30 -3 -36 0 -36 15 0
27 -20 43 -51 43 -33 0 -51 -20 -58 -68 -7 -44 -26 -50 -75 -27 -47 23 -129
96 -119 106 5 5 35 1 67 -7 32 -8 61 -12 65 -9 3 4 -15 26 -42 48 -26 23 -47
47 -47 54 0 6 24 15 52 20 63 10 68 17 97 156 11 54 30 115 42 136 22 40 64
71 96 71 27 0 35 10 22 27 -16 19 -51 16 -158 -12 -112 -30 -117 -30 -125 -9
-19 51 48 93 160 101 72 6 74 7 74 33 0 15 3 30 7 33 11 11 42 8 73 -8z m-491
-54 c12 -12 20 -41 25 -91 9 -88 -2 -105 -37 -58 -51 68 -79 143 -60 161 13
13 53 7 72 -12z m1916 -15 c11 -16 14 -33 9 -52 -7 -26 -8 -26 -20 -9 -13 17
-20 85 -9 85 2 0 12 -11 20 -24z m-164 -32 c11 -14 9 -20 -15 -40 -31 -27 -46
-24 -46 10 0 42 36 60 61 30z m2613 -50 c34 -13 14 -106 -32 -147 -20 -18 -21
-18 -32 3 -15 28 -4 92 22 125 22 28 20 27 42 19z m-2054 -75 c0 -28 -4 -39
-15 -39 -20 0 -29 43 -15 69 16 31 30 17 30 -30z m1265 -59 c24 -17 57 -47 72
-67 32 -42 54 -63 139 -132 34 -28 117 -117 185 -198 68 -81 165 -190 216
-240 98 -97 114 -131 74 -153 -46 -24 -95 -8 -121 40 -18 33 -93 77 -213 125
-64 26 -136 60 -160 76 -42 28 -73 72 -62 89 13 21 98 -25 154 -84 41 -43 71
-48 71 -12 0 17 -13 35 -37 55 -298 242 -359 297 -419 386 -36 53 -46 119 -21
144 18 19 70 7 122 -29z m-3466 -36 c23 -30 18 -52 -15 -60 -48 -12 -75 18
-56 62 15 31 45 31 71 -2z m1916 0 c18 -7 60 -84 46 -84 -11 0 -71 70 -71 82
0 10 4 10 25 2z m573 -47 c25 -24 28 -49 7 -67 -12 -10 -18 -6 -35 22 -23 37
-28 83 -7 72 6 -4 22 -16 35 -27z m-294 -19 c9 -12 16 -28 16 -36 0 -18 -48
-64 -60 -57 -13 8 -13 71 0 96 14 25 25 24 44 -3z m2292 6 c48 -23 88 -85 143
-222 46 -112 65 -145 270 -457 36 -55 95 -131 133 -169 98 -101 74 -113 -56
-29 -38 24 -93 68 -123 96 -89 83 -248 298 -303 407 -12 25 -53 86 -90 135
-91 121 -103 161 -68 233 14 27 46 29 94 6z m-1761 -74 c29 -56 8 -147 -39
-172 -11 -6 -39 -26 -60 -45 -22 -18 -46 -33 -53 -33 -29 0 -10 31 51 85 36
32 62 63 60 70 -3 7 -23 20 -45 30 -21 10 -39 20 -39 23 0 3 11 20 26 39 34
44 77 46 99 3z m1390 10 c28 -7 68 -17 90 -22 59 -14 129 -92 193 -216 30 -57
80 -147 113 -200 47 -77 59 -106 59 -138 0 -97 -56 -76 -166 64 -93 118 -170
205 -332 379 -69 75 -120 138 -117 144 9 13 90 8 160 -11z m-1076 -58 c55 -27
144 -100 161 -132 8 -14 5 -16 -13 -13 -16 3 -42 -10 -85 -42 -77 -58 -95 -57
-99 9 -2 28 -19 84 -38 129 -19 44 -35 82 -35 85 0 9 57 -10 109 -36z m216 12
c13 -9 47 -52 76 -97 81 -128 279 -379 323 -409 16 -11 83 -9 148 4 67 14 93
5 93 -32 0 -20 -8 -26 -45 -35 -73 -19 -125 -51 -171 -106 -24 -28 -123 -133
-220 -233 -99 -102 -192 -207 -213 -242 -76 -125 -185 -169 -446 -180 -107 -4
-145 -10 -183 -26 -35 -16 -50 -19 -59 -10 -28 28 66 142 117 142 22 0 25 -4
23 -26 -5 -42 15 -39 80 15 l60 50 -5 -39 c-6 -43 4 -51 29 -22 48 53 64 148
31 184 -46 51 -158 -7 -311 -160 -107 -107 -113 -115 -107 -144 l7 -31 -33 21
c-96 58 -273 83 -569 80 -184 -2 -230 9 -252 57 -10 23 -9 33 11 70 47 89 79
101 173 69 43 -14 48 -14 84 5 34 18 56 21 180 21 128 0 144 2 168 21 25 20
25 21 11 50 -9 16 -13 34 -10 39 7 12 61 12 90 1 15 -6 22 -1 35 23 26 53 100
45 100 -10 0 -18 -6 -24 -22 -24 -50 0 -94 -88 -52 -104 31 -12 44 -5 92 42
37 37 73 59 149 91 55 23 110 53 123 65 12 13 29 50 39 82 11 37 26 64 43 77
24 18 27 18 61 2 47 -22 76 -82 79 -161 1 -54 2 -51 8 26 9 123 -2 169 -74
315 -36 72 -68 150 -72 174 l-7 44 24 -16 c33 -23 97 -21 139 4 19 12 61 44
92 71 32 28 59 44 63 38 12 -20 64 -11 80 14 24 36 21 118 -4 162 -35 59 -25
80 24 48z m-1647 -50 c29 -8 28 -22 -4 -34 -29 -12 -64 2 -64 25 0 16 28 19
68 9z m1867 -55 c54 -48 44 -95 -13 -65 -31 16 -74 74 -66 88 11 17 45 7 79
-23z m-1270 -45 c19 -26 35 -51 35 -56 0 -5 -12 -13 -27 -19 -37 -14 -77 16
-81 60 -8 75 22 81 73 15z m-856 -13 c64 -55 43 -76 -39 -38 -39 17 -60 38
-60 59 0 32 50 22 99 -21z m309 -27 c27 -19 29 -60 3 -74 -11 -5 -36 -10 -56
-10 -44 0 -92 -20 -150 -61 -42 -31 -75 -34 -75 -7 0 25 107 116 152 128 23 7
54 18 68 26 32 17 31 17 58 -2z m-1307 -133 c46 -46 50 -80 17 -138 -44 -78
-88 -104 -117 -69 -15 18 -17 97 -3 123 6 11 9 36 6 55 -4 25 -1 39 11 51 25
26 44 21 86 -22z m-229 0 c74 -25 82 -32 73 -60 -9 -28 -29 -32 -66 -12 -34
19 -115 109 -89 99 8 -3 45 -15 82 -27z m1615 7 c19 -15 36 -76 29 -104 -4
-14 -38 -59 -76 -100 -73 -79 -85 -102 -78 -159 2 -22 -1 -36 -9 -39 -26 -11
-12 -43 33 -74 25 -18 44 -38 41 -45 -2 -6 -22 -15 -44 -20 -23 -4 -58 -23
-81 -43 -23 -19 -46 -33 -51 -30 -5 3 -15 38 -22 76 -10 56 -10 84 1 143 23
131 77 206 168 230 47 12 79 46 69 71 -7 19 -48 8 -114 -28 -52 -30 -85 -33
-107 -10 -21 20 -20 26 5 58 54 69 188 111 236 74z m913 -59 c12 -22 6 -69 -9
-69 -10 0 -21 35 -21 68 0 28 16 29 30 1z m-467 -21 c47 -31 106 -89 127 -123
10 -16 20 -52 22 -80 l3 -50 -41 -3 c-27 -2 -45 2 -54 13 -10 12 -10 15 2 15
8 0 23 6 33 14 26 19 11 36 -76 87 -78 45 -99 70 -99 116 0 29 3 33 26 33 14
0 40 -10 57 -22z m629 -53 c29 -53 37 -100 16 -93 -20 7 -78 100 -78 126 0 39
32 22 62 -33z m-1537 -53 c29 -18 105 -127 105 -151 0 -24 -61 1 -96 41 -21
23 -74 111 -74 122 0 12 36 5 65 -12z m1264 -27 c67 -23 108 -61 126 -115 19
-57 33 -71 89 -86 l41 -11 -66 -65 c-82 -79 -154 -128 -190 -128 -31 0 -39 9
-48 54 -6 26 -12 32 -46 37 -52 9 -68 32 -62 92 3 33 14 63 36 93 20 29 31 57
31 79 0 24 7 39 22 49 27 19 17 19 67 1z m-2218 -142 c25 -25 26 -42 6 -158
-16 -89 -39 -137 -70 -143 -9 -2 -33 13 -54 32 -38 35 -38 35 -12 36 15 0 33
7 40 16 21 26 -15 46 -68 38 -68 -10 -79 -1 -49 42 22 33 24 39 10 58 -42 61
11 109 114 104 47 -3 68 -9 83 -25z m1829 -65 c40 -115 40 -118 23 -118 -9 0
-38 22 -64 49 -40 40 -49 54 -49 84 0 20 7 43 16 51 25 25 50 3 74 -66z m1630
-89 c20 -37 10 -74 -41 -149 -65 -96 -89 -144 -128 -253 -45 -129 -72 -241
-65 -274 5 -25 0 -34 -26 -56 -17 -15 -40 -27 -50 -27 -28 0 -33 30 -9 56 33
36 22 59 -29 58 l-42 -1 21 23 c23 25 118 276 125 334 l5 35 -36 -38 c-20 -21
-38 -37 -40 -35 -9 9 59 110 128 189 41 48 83 101 93 117 29 51 73 60 94 21z
m-2442 -104 c28 -9 54 -20 57 -25 3 -4 -5 -21 -18 -36 -19 -22 -29 -26 -51
-20 -54 13 -104 96 -58 96 10 0 41 -7 70 -15z m322 -27 c0 -7 -20 -47 -45 -88
-25 -41 -45 -87 -45 -101 0 -45 -23 -54 -139 -54 -105 0 -191 17 -191 38 0 6
28 8 74 4 93 -7 107 2 150 97 18 39 40 77 49 84 35 29 147 44 147 20z m1180
-130 c0 -14 -59 -58 -78 -58 -19 0 -14 28 8 50 22 22 70 27 70 8z m-1588 -243
c34 -56 64 -65 129 -37 l49 20 0 -33 c0 -42 -33 -71 -141 -125 -74 -38 -119
-78 -119 -107 0 -11 5 -10 24 3 21 13 29 14 52 2 35 -17 47 -49 28 -77 -12
-17 -26 -21 -65 -21 -28 0 -49 -5 -49 -11 0 -6 12 -26 26 -44 14 -19 23 -38
20 -43 -3 -5 -50 -15 -105 -22 -90 -12 -104 -11 -145 4 -26 10 -55 31 -71 52
-14 18 -24 34 -21 34 3 0 28 -13 54 -30 61 -37 72 -38 72 -1 0 17 4 32 9 36 6
3 17 38 26 79 22 98 44 132 95 146 22 6 40 17 40 24 0 21 -56 64 -100 77 -22
7 -37 16 -34 21 5 8 180 95 194 97 3 0 17 -20 32 -44z m532 -30 c66 -34 127
-47 265 -56 153 -9 237 -27 264 -57 16 -17 15 -20 -11 -43 -15 -14 -39 -33
-54 -42 -22 -13 -28 -25 -28 -51 0 -32 -2 -34 -125 -94 -68 -34 -142 -66 -164
-73 -30 -9 -40 -18 -44 -38 -19 -92 -157 -143 -243 -90 -41 25 -42 35 -7 71
22 23 24 28 10 28 -30 0 -110 -47 -147 -85 -19 -20 -47 -43 -62 -51 -63 -33
-167 -5 -188 52 -14 36 -13 44 11 83 15 25 23 31 32 22 14 -14 44 -14 52 -1 4
6 1 33 -6 60 -11 42 -10 54 5 94 14 36 26 49 63 67 38 19 56 21 121 16 77 -5
172 -37 172 -56 0 -18 48 -43 70 -36 25 8 50 54 50 92 0 38 -33 89 -69 107
-43 23 -74 65 -60 82 15 18 57 18 93 -1z m-2476 -107 c-5 -16 -64 -59 -138
-101 -73 -43 -101 -87 -159 -249 -54 -152 -63 -168 -112 -201 -67 -45 -64
-114 6 -154 69 -39 135 -26 189 37 51 61 24 78 -53 35 -24 -14 -46 -24 -48
-22 -9 9 73 95 122 128 82 56 158 60 184 11 9 -16 6 -23 -14 -36 -17 -11 -25
-26 -25 -46 0 -24 5 -31 28 -35 15 -3 47 -10 71 -16 24 -5 48 -6 53 -1 4 4 -8
40 -27 80 -64 133 -49 162 63 123 81 -28 103 -26 217 25 93 41 162 51 224 32
60 -18 80 -48 88 -131 3 -37 9 -67 13 -67 4 0 13 14 20 31 17 41 54 38 58 -6
3 -41 -46 -136 -81 -155 -26 -14 -29 -14 -42 4 -8 10 -17 38 -21 62 -3 25 -11
47 -17 51 -6 4 -30 -16 -54 -43 -38 -43 -43 -46 -41 -24 3 24 0 25 -50 28
l-53 3 30 35 c67 75 93 171 46 168 -11 -1 -33 -7 -50 -13 -16 -6 -48 -15 -70
-21 -41 -10 -125 -58 -125 -72 0 -5 16 -8 36 -8 l37 0 -6 -40 c-11 -85 -58
-118 -202 -144 -123 -23 -178 -42 -206 -72 -43 -46 -84 -62 -238 -94 -52 -11
-118 -33 -148 -50 -30 -16 -60 -27 -67 -24 -8 3 -23 -6 -34 -20 -11 -14 -30
-26 -42 -26 -18 0 -20 4 -14 23 8 27 35 66 63 91 l21 19 -25 29 c-14 16 -25
36 -25 43 0 18 106 231 180 361 33 58 60 107 60 110 0 2 -11 -1 -25 -6 -13 -5
-27 -6 -29 -1 -8 13 46 92 88 129 20 18 44 51 52 74 17 49 55 102 90 125 14 9
53 19 87 23 101 12 119 11 115 -2z m751 -14 c34 -43 28 -86 -18 -127 -43 -39
-114 -68 -246 -102 -49 -13 -105 -29 -124 -36 -24 -8 -69 -10 -151 -6 -130 7
-176 -1 -211 -37 -16 -16 -48 -28 -98 -39 -70 -14 -74 -14 -92 4 -10 10 -19
23 -19 28 0 42 60 110 145 164 28 17 58 42 68 54 25 31 37 29 77 -12 40 -41
165 -105 220 -112 35 -5 40 -3 40 14 0 10 -11 34 -25 53 -14 19 -25 42 -25 52
0 25 37 41 82 35 49 -7 86 -31 99 -65 l10 -27 37 45 c106 131 187 170 231 114z
m3688 -29 c26 -20 57 -38 70 -41 29 -8 29 -19 2 -37 -42 -30 -125 14 -131 69
-6 55 -2 56 59 9z m-4779 -18 c2 -19 -6 -42 -22 -66 -14 -20 -26 -42 -26 -48
0 -18 -26 -34 -44 -27 -22 9 -46 56 -46 92 0 50 42 84 100 79 30 -2 35 -6 38
-30z m-194 -108 c14 -11 26 -29 26 -39 0 -21 -43 -55 -83 -65 -23 -6 -27 -4
-27 15 0 12 -11 31 -25 42 -14 11 -25 26 -25 33 0 38 92 47 134 14z m1725 -45
c22 -14 42 -32 45 -40 7 -19 0 -18 -33 7 l-29 21 -59 -28 c-32 -15 -61 -30
-66 -32 -4 -2 4 19 19 47 22 44 29 51 55 51 16 0 47 -12 68 -26z m182 -96
c-17 -46 -74 -100 -171 -163 -52 -35 -118 -85 -146 -113 -57 -56 -112 -78
-175 -67 -49 8 -78 39 -101 106 -23 71 -22 102 3 125 18 16 34 19 123 16 125
-3 166 6 336 78 74 32 136 54 138 50 1 -4 -2 -18 -7 -32z m484 -102 c17 -25
11 -56 -11 -56 -16 0 -34 31 -34 59 0 28 26 27 45 -3z m-159 -115 c54 -23 121
-86 147 -136 16 -30 16 -30 17 -5 0 14 9 44 20 68 15 33 24 42 43 42 14 0 30
-7 37 -15 11 -14 15 -14 29 -1 24 22 86 46 119 46 34 0 52 -16 52 -48 0 -19 4
-23 18 -17 9 3 36 11 59 18 57 15 136 -10 182 -57 l33 -34 114 58 c162 83 231
94 276 44 27 -32 27 -59 -2 -62 -14 -2 -97 -19 -185 -38 -228 -50 -334 -63
-456 -57 -195 10 -324 -27 -396 -114 -91 -109 -102 -119 -113 -103 -5 8 -10
65 -10 127 0 120 -5 134 -58 154 -38 14 -73 4 -222 -65 -74 -35 -157 -72 -185
-82 -28 -11 -50 -26 -50 -34 0 -8 32 -34 72 -58 83 -50 102 -82 84 -150 -15
-54 -65 -119 -107 -139 -33 -16 -35 -16 -55 3 -11 11 -22 36 -25 56 -6 33 -4
35 24 41 36 7 56 39 66 106 l7 44 -52 -7 c-92 -12 -169 -68 -153 -111 4 -10
-14 -1 -47 24 -54 41 -142 81 -179 81 -34 0 -26 53 14 97 71 79 205 135 214
90 2 -10 -12 -35 -32 -57 -20 -22 -36 -49 -36 -59 0 -40 55 -69 106 -57 21 6
24 10 17 29 -4 12 -8 50 -8 84 1 55 5 68 38 115 44 65 89 101 178 145 101 50
161 63 264 60 66 -3 104 -9 141 -26z m-87 -218 c23 -15 24 -16 6 -29 -10 -8
-28 -11 -41 -8 -26 7 -79 -19 -94 -45 -27 -52 -60 -61 -60 -17 0 27 56 105 84
116 26 11 73 3 105 -17z m1248 1 c37 -8 156 -45 263 -81 107 -35 201 -67 209
-69 11 -3 11 -7 1 -19 -18 -22 -84 -19 -195 10 -74 20 -101 23 -111 14 -9 -7
-37 -10 -74 -7 -46 3 -70 11 -102 34 -47 33 -88 87 -88 115 0 23 10 23 97 3z
m-2017 -15 c-32 -27 -154 -89 -175 -89 -37 0 -5 39 59 72 50 26 83 36 116 37
l25 0 -25 -20z m-316 -10 c36 -17 58 -85 37 -118 -7 -10 -23 -5 -77 28 -37 23
-71 41 -76 41 -15 0 -8 39 10 49 23 14 75 14 106 0z m1533 -71 c34 -24 43 -52
19 -61 -7 -3 -33 -8 -58 -12 -33 -5 -47 -3 -56 8 -22 26 14 85 52 87 6 0 25
-10 43 -22z m189 -63 c44 -26 70 -58 59 -74 -3 -5 -18 -12 -34 -16 -61 -13
-63 -51 -5 -78 73 -35 121 -18 122 44 1 90 48 98 227 39 66 -22 139 -40 161
-40 25 0 72 13 114 31 89 38 121 36 133 -8 l10 -32 41 27 c36 24 51 27 121 27
68 0 87 -4 125 -26 25 -14 50 -24 57 -22 6 2 27 -2 45 -10 29 -12 43 -31 82
-105 53 -105 82 -132 137 -132 34 0 40 4 53 33 37 90 176 101 176 15 l0 -31
-23 21 c-24 23 -47 29 -47 13 0 -24 76 -160 109 -194 87 -92 171 -91 171 2 0
40 14 39 56 -3 40 -40 43 -72 12 -111 -52 -66 -167 -84 -251 -39 -89 47 -97 6
-17 -78 28 -29 58 -50 77 -54 41 -8 75 -40 71 -67 -4 -32 -68 -59 -151 -65
-57 -4 -69 -2 -65 9 3 8 28 20 56 28 86 23 62 51 -45 51 -64 0 -103 -14 -110
-40 -8 -30 -113 -55 -113 -27 0 7 22 38 48 68 53 58 77 97 68 107 -4 3 -33 -7
-66 -23 l-59 -28 -22 26 c-35 46 -74 60 -166 59 -90 -1 -227 -25 -271 -48 -76
-39 -125 -2 -198 152 -30 62 -54 124 -54 137 0 30 49 76 118 111 68 35 186
119 183 131 -4 20 -137 6 -236 -25 -53 -16 -102 -27 -108 -23 -6 3 8 22 34 44
50 42 47 55 -8 44 -52 -9 -118 -76 -108 -107 4 -13 11 -79 15 -148 4 -69 12
-138 19 -155 16 -40 55 -80 108 -111 74 -43 54 -54 -52 -29 -114 28 -134 15
-60 -37 26 -19 44 -39 43 -48 -3 -16 -61 -33 -139 -42 -45 -5 -46 -4 -58 28
-25 69 -78 90 -259 103 -126 9 -157 18 -185 48 -16 18 -16 21 -2 33 20 16 128
8 170 -13 40 -21 85 -31 85 -20 0 54 -206 151 -358 169 -68 7 -163 -13 -230
-51 -25 -14 -46 -25 -48 -25 -2 0 8 17 22 37 38 56 30 68 -43 68 -77 0 -101
17 -49 35 20 6 36 15 36 18 -1 17 -19 32 -54 47 -49 21 -102 10 -240 -51 -79
-35 -186 -74 -203 -74 -9 0 -1 45 13 72 24 46 103 127 146 149 20 10 53 19 73
19 33 0 36 -2 30 -22 -4 -13 -9 -31 -11 -40 -3 -10 -1 -18 5 -18 19 0 61 66
86 136 23 62 45 94 67 94 20 0 40 -51 34 -86 -9 -44 9 -101 33 -109 22 -7 63
8 101 35 33 24 59 25 86 6 18 -14 17 -17 -30 -59 -33 -28 -48 -48 -44 -59 10
-25 67 -46 158 -58 47 -6 109 -18 139 -26 48 -14 57 -14 94 1 64 26 154 30
239 11 l75 -17 45 43 c59 55 72 79 54 103 -12 17 -16 15 -49 -21 -35 -39 -36
-39 -109 -39 -55 1 -83 6 -114 22 -40 21 -40 21 -53 1 -30 -48 -114 -57 -201
-21 -44 18 -100 55 -100 67 0 5 19 34 41 64 56 74 56 86 -3 92 -88 11 -78 37
26 70 43 13 79 27 82 31 2 4 -1 19 -7 33 -13 27 -6 56 12 56 7 0 32 -11 55
-25z m-1429 -120 c78 -23 143 -110 116 -154 -22 -36 -77 -51 -212 -58 -129 -6
-131 -6 -111 -25 43 -41 9 -88 -65 -88 -48 0 -90 -26 -190 -118 -38 -36 -87
-76 -109 -90 l-38 -26 -19 23 c-28 34 -34 71 -18 100 8 14 51 48 96 76 121 74
135 90 127 140 -8 59 6 67 138 76 143 11 175 21 183 60 4 17 4 33 1 36 -3 3
-29 -5 -59 -17 -38 -16 -63 -21 -83 -16 l-27 7 25 26 c29 28 117 62 164 63 17
0 53 -7 81 -15z m1129 -539 c-12 -48 -36 -19 -36 44 l0 24 21 -21 c16 -16 20
-28 15 -47z m1488 -104 c3 -5 -17 -30 -44 -57 -27 -27 -47 -52 -44 -57 3 -4
30 -8 60 -8 41 0 54 -4 54 -15 0 -19 -35 -41 -91 -56 -55 -15 -93 -6 -123 26
-29 32 -33 31 -84 -6 -50 -36 -69 -31 -46 13 25 48 8 55 -80 34 -74 -19 -96
-17 -96 10 0 22 35 31 161 43 126 13 198 30 244 60 31 20 80 27 89 13z"/>
<path d="M5056 11211 c-6 -10 37 -31 64 -31 24 0 27 25 4 34 -23 9 -62 7 -68
-3z"/>
<path d="M4624 10928 c-9 -18 -26 -43 -37 -55 -27 -30 -14 -29 40 2 46 27 46
28 37 63 -9 31 -21 28 -40 -10z"/>
<path d="M4464 10829 c5 -13 10 -38 13 -55 4 -27 1 -32 -26 -43 -31 -13 -61
-41 -44 -41 5 0 33 15 63 33 85 50 92 104 16 123 -27 6 -29 5 -22 -17z"/>
<path d="M1946 10311 c-8 -15 -20 -77 -26 -137 -23 -237 -51 -327 -160 -523
-44 -80 -78 -146 -76 -148 1 -2 23 21 47 49 24 29 69 80 100 114 31 33 68 81
82 105 35 59 63 172 77 306 6 60 18 133 25 163 12 47 12 58 -1 77 -20 32 -50
29 -68 -6z"/>
<path d="M2570 10078 c-32 -35 -71 -124 -76 -176 -4 -37 -1 -52 15 -72 16 -20
23 -23 38 -14 28 18 54 101 60 197 6 94 0 105 -37 65z"/>
<path d="M2076 9985 c-53 -53 -64 -127 -19 -133 42 -6 106 151 66 165 -6 2
-27 -12 -47 -32z"/>
<path d="M3253 9858 c-12 -13 -37 -50 -56 -84 -46 -77 -95 -122 -240 -218
-104 -69 -197 -153 -197 -177 0 -19 68 -7 115 20 28 16 91 66 140 110 50 45
97 80 105 78 8 -1 20 -14 27 -28 18 -37 -4 -113 -69 -247 -77 -158 -79 -162
-68 -162 18 0 84 65 117 117 47 73 78 175 108 353 15 85 33 177 41 204 8 27
14 51 14 53 0 10 -19 0 -37 -19z"/>
<path d="M2325 9848 c-11 -6 -45 -34 -75 -62 -30 -28 -72 -65 -93 -82 -37 -30
-37 -31 -18 -48 27 -25 61 -15 112 31 36 32 111 123 133 161 9 15 -31 16 -59
0z"/>
<path d="M2021 9759 c-25 -27 -13 -49 26 -49 21 0 24 4 21 32 -4 40 -20 46
-47 17z"/>
<path d="M1935 9604 c-34 -17 -95 -73 -95 -87 0 -18 65 4 118 38 28 20 52 42
52 50 0 20 -37 19 -75 -1z"/>
<path d="M2585 9500 c-31 -20 -135 -138 -135 -153 0 -18 66 32 121 93 74 81
79 103 14 60z"/>
<path d="M5775 8136 l-30 -13 37 -12 c46 -15 95 -69 143 -157 21 -38 47 -85
59 -104 l20 -35 -29 22 c-33 23 -103 45 -117 37 -28 -18 23 -84 94 -120 67
-34 132 -31 161 8 20 27 20 29 3 90 -33 121 -113 230 -198 272 -57 29 -97 32
-143 12z"/>
<path d="M5131 7652 c-92 -117 -143 -317 -111 -434 19 -68 59 -72 185 -19 l70
30 22 -21 c33 -31 37 -17 12 41 -17 41 -19 54 -9 66 24 29 59 17 107 -35 52
-56 71 -61 94 -25 14 23 16 24 37 9 47 -32 11 -88 -79 -121 l-48 -18 40 -77
c21 -43 39 -80 39 -82 0 -3 -30 14 -67 36 -87 53 -152 78 -204 78 -33 0 -47
-6 -76 -35 l-34 -34 -29 20 c-15 12 -33 18 -39 15 -16 -10 -13 -62 5 -97 14
-28 19 -30 52 -26 20 2 52 11 70 18 32 13 35 13 53 -10 32 -39 18 -119 -27
-165 -37 -36 -68 -33 -109 11 -29 31 -36 35 -49 24 -19 -16 -21 -52 -4 -69 7
-7 25 -12 40 -12 36 0 98 -25 98 -40 0 -17 -58 -47 -127 -66 -48 -13 -71 -26
-93 -51 -17 -18 -30 -38 -30 -43 0 -6 39 -10 89 -10 92 0 133 -9 164 -37 17
-16 16 -18 -7 -42 -27 -28 -25 -36 18 -69 64 -49 96 -16 96 100 0 59 20 126
43 140 20 13 77 9 77 -4 0 -7 -10 -41 -22 -74 -21 -59 -21 -63 -5 -88 32 -47
112 -45 149 4 21 29 38 118 38 206 0 95 8 124 36 124 38 0 54 -35 54 -123 0
-91 16 -130 60 -145 26 -10 30 -9 30 7 0 23 26 31 100 31 30 0 66 6 80 13 37
19 69 26 75 17 3 -5 -8 -24 -24 -42 l-29 -33 24 -18 c29 -21 32 -77 9 -133
-20 -49 -44 -42 -61 17 -8 26 -21 52 -30 60 -14 11 -19 10 -35 -10 -27 -33
-25 -100 3 -136 20 -26 25 -27 77 -22 36 4 65 2 81 -6 36 -18 60 -73 60 -137
0 -52 1 -53 16 -32 20 29 50 28 58 -2 3 -13 5 -82 5 -153 -1 -135 10 -188 41
-188 8 0 21 17 29 39 13 34 13 50 -2 141 -9 57 -45 203 -81 326 -35 123 -70
253 -76 289 -7 36 -28 112 -47 169 -19 57 -32 109 -29 117 9 23 51 16 78 -13
36 -39 51 -73 83 -191 20 -73 36 -111 55 -132 36 -39 60 -39 60 -2 0 15 16 52
35 82 35 54 45 90 25 90 -6 0 -22 11 -35 24 -29 29 -25 47 17 92 16 17 37 46
46 64 21 43 35 47 62 20 20 -20 21 -28 15 -93 -23 -231 -45 -305 -104 -344
-42 -28 -76 -29 -132 -3 -26 11 -48 15 -53 10 -15 -15 13 -67 73 -135 31 -35
65 -78 76 -97 40 -66 91 -49 215 69 76 74 81 81 87 129 8 71 -18 188 -77 348
-27 73 -57 164 -66 201 -22 87 -53 125 -102 125 -27 0 -142 -32 -200 -56 -1
-1 13 -17 32 -36 62 -62 71 -199 14 -229 -26 -14 -48 -5 -48 21 0 31 -31 84
-109 190 -44 60 -82 125 -102 175 -47 119 -125 269 -159 308 -38 44 -86 67
-140 67 -38 0 -41 -2 -34 -22 23 -72 -37 -128 -137 -128 -46 0 -55 4 -83 34
-48 50 -66 56 -171 56 l-97 0 29 28 c38 35 57 91 51 154 -7 70 -19 77 -57 30z
m599 -248 c16 -25 41 -80 55 -122 15 -43 53 -128 84 -191 55 -111 56 -115 56
-200 0 -61 -5 -96 -17 -118 -13 -26 -14 -39 -6 -61 20 -51 7 -62 -71 -62 -93
0 -125 -12 -117 -45 4 -14 4 -25 2 -25 -2 0 -12 -3 -22 -7 -16 -6 -17 1 -10
90 5 77 3 102 -8 120 -18 27 -13 37 42 71 45 28 50 41 28 71 -13 18 -15 18
-62 -2 -75 -32 -100 -35 -118 -17 -9 8 -16 28 -16 43 0 15 -5 32 -11 38 -17
17 -13 87 9 135 38 86 77 86 77 1 0 -27 5 -48 12 -50 15 -6 61 63 69 105 6 28
2 36 -29 65 -48 44 -60 78 -46 130 25 93 53 102 99 31z m-458 -1 c29 -26 21
-48 -33 -97 -83 -75 -162 -82 -188 -17 -20 47 -9 53 80 45 95 -8 113 1 103 52
-7 38 7 45 38 17z m198 -518 c38 -34 19 -138 -35 -192 -18 -18 -42 -33 -52
-33 -31 0 -55 34 -55 77 0 25 -8 47 -24 66 -31 37 -30 61 4 87 22 18 37 21 84
18 37 -3 64 -11 78 -23z m996 -446 c-6 -108 -18 -152 -49 -178 -12 -9 -23 -9
-51 3 -48 20 -47 48 5 111 41 50 69 96 69 114 0 16 19 61 26 61 3 0 3 -50 0
-111z"/>
<path d="M5757 7078 c13 -68 26 -154 29 -193 10 -105 28 -129 60 -80 10 16 16
45 16 78 0 51 -6 67 -100 279 -10 21 -20 38 -23 38 -3 0 5 -55 18 -122z"/>
<path d="M5940 7270 c-27 -27 -25 -52 7 -90 15 -18 34 -46 43 -63 36 -66 49
-37 40 86 -5 69 -16 87 -52 87 -10 0 -27 -9 -38 -20z"/>
<path d="M6795 6960 c-23 -44 -19 -117 11 -180 50 -108 218 -310 259 -310 3 0
5 20 5 44 0 24 8 71 18 103 l19 59 -60 -4 -60 -5 -84 89 c-72 76 -81 89 -63
92 62 10 44 142 -19 142 -6 0 -17 -13 -26 -30z"/>
<path d="M6950 6876 c0 -32 14 -55 26 -43 8 8 -7 77 -17 77 -5 0 -9 -15 -9
-34z"/>
<path d="M3342 6714 c-52 -36 -6 -98 126 -168 37 -19 73 -44 80 -55 7 -12 23
-21 37 -21 21 0 25 5 25 28 0 46 -50 103 -148 170 -50 34 -92 62 -94 62 -2 0
-14 -7 -26 -16z"/>
<path d="M3778 6659 c-13 -7 -16 -17 -11 -39 4 -25 2 -30 -13 -30 -11 1 -30 7
-44 15 -52 30 -66 12 -24 -30 14 -14 41 -60 60 -102 49 -107 69 -131 131 -159
46 -22 59 -24 87 -14 78 25 131 144 95 213 -18 33 -32 38 -47 16 -17 -24 -84
-59 -114 -59 -28 0 -68 26 -68 43 0 7 9 18 20 25 29 18 27 82 -3 110 -25 24
-43 27 -69 11z"/>
<path d="M4190 6483 c-36 -46 -12 -116 61 -177 66 -56 159 -55 263 2 76 42 71
52 -24 52 -71 0 -81 2 -78 17 5 25 65 57 112 59 22 1 42 7 44 13 8 24 -95 47
-250 56 l-106 6 -22 -28z m157 -74 c-7 -53 -57 -96 -57 -49 0 35 28 90 46 90
14 0 16 -7 11 -41z"/>
<path d="M3380 6455 c0 -52 101 -135 164 -135 15 0 27 -7 31 -19 6 -19 45 -39
134 -67 29 -9 62 -25 72 -35 76 -76 147 -70 298 30 63 41 80 58 81 84 0 12 -8
17 -27 17 -31 0 -128 -42 -155 -67 -14 -12 -30 -14 -73 -9 -80 9 -150 39 -266
112 -135 86 -192 114 -229 114 -25 0 -30 -4 -30 -25z"/>
<path d="M5022 6380 c-13 -24 -22 -29 -39 -25 -28 7 -28 4 -3 -44 18 -37 19
-50 10 -214 -10 -193 -20 -230 -80 -281 l-32 -26 -22 32 c-37 56 -91 78 -274
113 -18 4 -83 41 -145 82 -154 104 -217 133 -290 133 -51 0 -62 -4 -88 -29
-17 -17 -27 -36 -23 -44 8 -22 75 -46 146 -54 35 -3 65 -12 72 -21 59 -77 95
-94 242 -116 74 -11 87 -17 159 -69 117 -86 191 -119 278 -124 62 -4 78 -1
116 19 70 37 72 47 29 130 -21 40 -35 74 -33 76 2 2 14 -3 27 -12 28 -20 78
-21 78 -3 0 8 -22 47 -50 88 -57 85 -64 115 -34 135 22 15 11 20 177 -69 82
-44 125 -47 191 -12 65 35 107 33 151 -6 27 -24 35 -39 33 -58 -3 -26 -4 -26
-70 -23 -60 3 -70 1 -92 -21 -29 -29 -42 -71 -57 -187 -6 -47 -15 -94 -19
-105 -7 -19 -9 -18 -18 7 -23 57 -55 41 -66 -33 -3 -21 -9 -58 -12 -81 -4 -27
-17 -52 -36 -71 -25 -26 -34 -29 -69 -23 -57 9 -119 43 -230 125 -97 71 -143
96 -160 85 -13 -8 -11 -45 4 -72 20 -36 96 -110 120 -118 12 -3 31 -14 42 -24
11 -10 72 -46 135 -81 174 -96 258 -188 248 -274 -3 -28 -4 -27 -43 25 -26 35
-58 63 -91 80 -28 14 -86 54 -128 88 -55 44 -86 62 -106 62 -16 0 -31 -4 -34
-8 -3 -4 18 -39 46 -76 96 -128 293 -274 518 -384 69 -34 181 -93 250 -131
129 -73 172 -85 189 -53 21 40 -32 163 -82 188 -34 18 -46 12 -40 -21 7 -33
-24 -47 -43 -20 -21 28 -17 61 12 111 29 50 23 53 -42 22 l-46 -23 -18 22
c-14 18 -19 20 -24 8 -16 -43 -101 2 -125 67 -16 42 -5 58 40 58 21 0 39 4 39
10 0 20 -116 26 -160 7 -18 -8 -86 85 -75 102 3 6 -12 28 -34 49 -37 35 -41
43 -41 89 0 63 31 113 80 130 21 7 63 9 106 6 98 -8 162 14 225 77 81 81 103
222 42 274 -16 14 -32 49 -49 111 -14 50 -33 98 -42 109 -27 29 -72 48 -102
42 -15 -3 -35 0 -44 7 -15 11 -14 19 11 88 22 62 26 82 18 105 -17 47 -49 42
-130 -17 -91 -66 -119 -78 -183 -75 -67 3 -93 27 -138 124 -18 39 -38 72 -44
72 -6 0 -19 -14 -28 -30z m543 -521 c34 -38 36 -44 32 -92 -5 -58 -38 -159
-54 -164 -25 -9 -95 150 -96 219 -1 89 55 107 118 37z"/>
<path d="M5684 6389 c-19 -21 -18 -21 5 -40 33 -27 51 -24 51 9 0 26 -15 52
-30 52 -4 0 -15 -9 -26 -21z"/>
<path d="M4814 6375 c-15 -23 -15 -28 -3 -36 8 -5 25 -8 39 -7 21 3 25 8 25
33 0 41 -37 47 -61 10z"/>
<path d="M5684 6249 c-19 -21 -18 -21 5 -40 33 -27 51 -24 51 9 0 26 -15 52
-30 52 -4 0 -15 -9 -26 -21z"/>
<path d="M4640 6244 c-36 -8 -90 -15 -120 -17 -51 -2 -56 -4 -65 -32 -14 -41
-55 -46 -91 -10 -31 31 -79 32 -79 1 0 -23 167 -125 262 -162 94 -35 131 -32
174 12 18 20 71 65 116 101 45 36 80 70 76 75 -3 6 -24 19 -47 29 -49 22 -133
24 -226 3z"/>
<path d="M6537 6189 c-18 -25 -12 -51 19 -80 21 -20 27 -21 35 -9 18 28 -5
110 -32 110 -4 0 -14 -9 -22 -21z"/>
<path d="M3555 6125 c-52 -51 -27 -78 100 -110 80 -20 112 -34 139 -64 25 -27
116 -47 164 -35 48 12 52 36 10 63 -18 11 -53 35 -78 51 -24 17 -86 43 -136
59 -51 16 -106 37 -123 45 -40 21 -48 20 -76 -9z"/>
<path d="M5109 6073 c-8 -22 -6 -30 12 -50 13 -12 26 -23 31 -23 11 0 10 58
-2 81 -15 26 -29 24 -41 -8z"/>
<path d="M6388 6054 c-33 -17 -36 -34 -7 -34 11 0 19 -3 17 -7 -90 -179 -89
-175 -76 -344 5 -60 16 -101 53 -190 35 -86 48 -131 52 -184 l5 -70 -31 35
c-30 34 -31 34 -46 16 -19 -25 -19 -90 0 -106 22 -19 71 -2 103 35 29 33 30
34 37 203 7 158 6 172 -13 215 -15 33 -31 52 -55 63 l-34 16 18 37 c11 20 26
53 34 74 7 20 18 37 23 37 17 0 70 -115 81 -175 5 -33 15 -90 22 -127 11 -69
45 -135 80 -156 17 -11 19 -9 20 15 3 59 -4 141 -17 218 -18 103 -17 200 2
250 34 87 30 139 -8 133 -16 -2 -27 -16 -39 -51 -35 -98 -58 -96 -66 4 -7 90
-22 109 -81 109 -26 -1 -59 -8 -74 -16z"/>
<path d="M7698 5884 c-4 -149 1 -168 73 -326 27 -59 52 -122 56 -140 7 -38 57
-143 73 -153 10 -6 15 19 11 70 -4 51 -41 164 -102 311 -32 77 -68 176 -80
220 -12 43 -23 81 -25 83 -2 2 -5 -27 -6 -65z"/>
<path d="M5122 5598 c-6 -6 -12 -16 -12 -21 0 -14 32 -36 53 -37 15 0 18 7 15
33 -3 35 -33 48 -56 25z"/>
<path d="M4665 5388 c-50 -27 -59 -73 -22 -118 12 -15 30 -42 39 -59 36 -66
57 -17 39 91 -6 39 -10 73 -8 75 3 2 20 -32 38 -77 19 -44 44 -92 56 -108 22
-26 23 -27 38 -8 20 26 19 44 -5 91 -11 22 -20 45 -20 53 0 7 -13 27 -29 43
-32 31 -87 39 -126 17z"/>
<path d="M5820 4566 c0 -18 88 -116 105 -116 7 0 17 6 23 13 15 18 -7 49 -61
88 -44 32 -67 37 -67 15z"/>
<path d="M8050 3685 c0 -23 62 -105 80 -105 15 0 19 44 5 76 -22 54 -85 75
-85 29z"/>
<path d="M8100 3468 c0 -39 58 -127 135 -203 49 -49 94 -109 136 -180 78 -131
123 -179 184 -194 24 -6 50 -10 57 -9 9 2 14 -12 16 -42 4 -78 10 -90 55 -110
23 -11 62 -31 87 -45 25 -14 46 -21 48 -15 2 5 -17 50 -42 99 -50 97 -55 118
-30 123 10 2 -12 21 -59 51 -75 47 -107 58 -107 35 -1 -26 -68 64 -150 202
-92 154 -159 237 -229 282 -56 35 -101 38 -101 6z"/>
<path d="M8841 2808 c-10 -26 7 -61 33 -66 19 -4 22 37 6 69 -14 25 -29 24
-39 -3z"/>
<path d="M1075 7027 c-8 -30 -1 -57 15 -57 12 0 13 50 1 69 -8 12 -11 9 -16
-12z"/>
<path d="M2990 7561 c-16 -30 -12 -39 20 -56 43 -22 70 -20 70 8 0 55 -66 91
-90 48z"/>
<path d="M3335 5536 c16 -24 16 -25 -7 -30 -12 -3 -36 -7 -53 -8 -27 -3 -30
-6 -28 -37 0 -18 8 -41 17 -50 15 -14 19 -14 43 -1 36 20 80 106 66 128 -5 10
-20 18 -32 20 -22 3 -22 3 -6 -22z"/>
<path d="M3065 2216 c-16 -7 -40 -25 -53 -38 l-23 -25 40 -7 c22 -3 44 -13 49
-22 11 -21 91 -16 105 7 16 25 0 67 -33 84 -35 18 -46 18 -85 1z"/>
<path d="M1366 5872 c-3 -5 -34 -17 -68 -26 -91 -24 -138 -47 -138 -65 0 -9
23 -36 51 -60 54 -46 69 -45 69 7 0 38 30 39 60 2 18 -22 33 -31 43 -27 20 7
31 66 24 114 -7 39 -31 72 -41 55z"/>
<path d="M6098 3063 c-21 -24 -58 -99 -58 -118 0 -30 38 -14 78 34 49 58 57
101 19 101 -13 0 -31 -8 -39 -17z"/>
<path d="M4736 2262 c-19 -22 -16 -72 4 -72 12 0 23 41 18 70 l-3 22 -19 -20z"/>
<path d="M5510 2767 c-54 -27 -27 -113 46 -143 74 -31 110 -9 82 50 -8 17 -21
43 -28 57 -11 23 -47 49 -68 49 -4 0 -18 -6 -32 -13z"/>
<path d="M4510 1749 c-71 -32 -103 -69 -60 -69 23 0 71 23 113 53 53 40 21 50
-53 16z"/>
<path d="M1842 1188 c-7 -7 -12 -17 -12 -23 0 -37 103 -74 137 -50 16 12 14
16 -19 49 -38 38 -82 48 -106 24z"/>
<path d="M4816 938 c-21 -30 -20 -33 8 -46 30 -13 49 4 44 40 -4 31 -32 34
-52 6z"/>
<path d="M4883 835 c-37 -23 -47 -24 -85 -15 -104 24 -246 7 -350 -41 -87 -41
-53 -50 92 -24 152 27 237 14 262 -39 17 -38 49 -33 92 15 38 42 56 77 56 110
0 25 -16 24 -67 -6z"/>
<path d="M5407 660 c-84 -22 -157 -77 -157 -121 0 -10 13 -25 29 -33 28 -15
29 -15 35 9 13 50 79 68 150 39 16 -6 17 -5 7 15 -18 34 -5 41 74 41 41 0 76
4 80 10 19 30 -139 60 -218 40z"/>
<path d="M5392 453 c-70 -36 -67 -50 8 -44 58 4 132 47 108 63 -24 15 -64 8
-116 -19z"/>
<path d="M4888 459 c-35 -20 -20 -54 39 -86 13 -7 27 -13 32 -13 11 0 23 73
15 94 -7 18 -59 21 -86 5z"/>
<path d="M3081 834 c-40 -51 -36 -83 11 -84 39 0 65 69 36 98 -17 17 -24 15
-47 -14z"/>
<path d="M1394 9853 c-44 -42 -114 -126 -114 -137 0 -4 14 1 31 11 33 19 149
140 149 154 0 20 -29 7 -66 -28z"/>
<path d="M8265 5390 c-8 -14 30 -74 62 -100 38 -30 53 -26 53 14 0 26 -8 41
-35 65 -36 31 -68 40 -80 21z"/>
<path d="M1128 3895 c29 -13 74 -39 100 -56 47 -32 47 -32 22 -4 -38 42 -110
85 -144 85 -29 0 -27 -2 22 -25z"/>
<path d="M1309 3777 c14 -18 51 -42 51 -33 0 3 -15 15 -32 27 -24 17 -29 18
-19 6z"/>
<path d="M9105 2080 c-42 -9 -73 -27 -85 -49 -11 -22 1 -35 45 -45 34 -9 45
-21 45 -54 0 -28 -22 -37 -115 -47 -72 -7 -135 -27 -135 -42 0 -17 25 -33 51
-33 50 0 294 60 319 79 34 25 36 53 6 89 -15 16 -26 39 -26 49 0 39 -51 64
-105 53z"/>
<path d="M6068 1914 c-30 -16 -35 -33 -16 -52 28 -28 78 2 78 46 0 26 -22 28
-62 6z"/>
<path d="M5243 1656 c-36 -32 -21 -54 28 -40 30 8 59 37 49 47 -20 18 -51 15
-77 -7z"/>
<path d="M5974 1627 c-55 -30 -275 -179 -271 -183 3 -3 207 68 277 96 70 27
150 78 150 95 0 37 -81 32 -156 -8z"/>
<path d="M8419 1594 c-25 -30 32 -103 115 -146 27 -14 30 -14 47 3 40 40 145
13 229 -60 43 -37 26 -39 -55 -6 -93 39 -116 33 -128 -31 -5 -29 -2 -35 32
-57 79 -52 200 -106 285 -126 107 -26 137 -26 166 -3 l22 18 -43 90 -44 89
-78 26 c-55 18 -113 50 -191 103 -61 42 -135 85 -164 96 -66 25 -173 27 -193
4z"/>
<path d="M5522 1554 c-57 -28 -87 -64 -54 -64 24 0 110 45 137 71 19 19 19 19
-6 19 -14 0 -49 -12 -77 -26z"/>
<path d="M7285 1524 c-14 -22 -15 -28 -4 -35 20 -12 53 -11 67 3 16 16 15 23
-4 42 -22 23 -39 20 -59 -10z"/>
<path d="M5943 1416 c-56 -26 -89 -66 -55 -66 24 0 110 45 137 71 19 19 19 19
-5 19 -14 0 -48 -11 -77 -24z"/>
<path d="M7078 1400 c-27 -18 -50 -36 -53 -40 -3 -5 32 -8 77 -7 l83 2 10 -33
c22 -64 28 -67 212 -70 159 -3 281 8 313 29 28 18 -10 27 -89 22 -73 -4 -79
-3 -158 35 -80 40 -82 40 -99 21 -26 -28 -54 -23 -124 22 -86 55 -113 58 -172
19z"/>
<path d="M8027 1413 c-9 -2 -15 -9 -12 -14 8 -12 165 -12 165 0 0 17 -104 27
-153 14z"/>
<path d="M8331 1386 c-17 -20 25 -47 84 -54 37 -4 45 -2 45 12 0 21 -57 56
-91 56 -15 0 -32 -6 -38 -14z"/>
<path d="M7870 1331 c-16 -40 0 -67 50 -82 48 -14 66 -4 56 34 -17 71 -84 101
-106 48z"/>
<path d="M5967 1290 c-53 -20 -197 -110 -197 -123 0 -22 209 70 265 117 l30
25 -25 0 c-14 0 -47 -8 -73 -19z"/>
<path d="M5701 1278 c-25 -26 -19 -38 18 -38 34 0 77 32 67 48 -12 20 -64 14
-85 -10z"/>
<path d="M3260 390 c0 -102 8 -119 44 -102 31 14 32 24 6 81 -11 24 -20 49
-20 55 0 7 -7 21 -15 32 -13 17 -14 11 -15 -66z"/>
<path d="M3492 295 c-17 -37 -14 -45 4 -12 9 16 14 31 11 33 -2 2 -9 -7 -15
-21z"/>
</g>
</svg>
